<svg xmlns="http://www.w3.org/2000/svg" width="556.78" height="286.92" viewBox="0 0 556.78 286.92">
  <defs>
    <style>
      .a {
        fill: #0b3958;
      }

      .b {
        fill: #2472a5;
      }

      .c {
        fill: #8b5014;
      }

      .d {
        fill: #f59f31;
      }

      .e {
        fill: #8b1812;
      }

      .f {
        fill: #e94634;
      }

      .g {
        fill: #1e1e1c;
      }

      .h {
        fill: #3d3d3b;
      }
    </style>
  </defs>
  <title>Empowering_hacks_logo_2</title>
  <g>
    <g>
      <g>
        <path class="a" d="M99.88,283.56l-25.14,3-5.93-3V236.92H32.88v46.64l-25.13,3-5.94-3V169.14H32.88l5.94,2.5-5.94,39.92H68.81V169.14H99.88l5.93,2.5Z"/>
        <path class="a" d="M194.81,283.56l-5.64-21.44H152l-5.79,21.44-28,3-5.94-3,37.33-114.89h41.25l5.93,3,31.87,111.92-27.87,3Zm-12.05-46.8L177.83,218q-1.72-6.27-4.19-16.21t-3.25-14.24q-.7,4-2.78,13.15t-9.19,36.08Z"/>
        <path class="a" d="M291.93,193.52a19.83,19.83,0,0,0-17.21,8.86q-6.2,8.87-6.19,24.43,0,32.37,25.13,32.37a52.44,52.44,0,0,0,14.71-2.07,147,147,0,0,0,14.32-5l5.94,3-5.94,22.65Q308.37,284,290.29,284q-25.91,0-39.72-14.73t-13.81-42.56q0-17.41,6.69-30.61a47.34,47.34,0,0,1,19.25-20.28q12.57-7.1,29.55-7.1a82.87,82.87,0,0,1,35.45,7.9l5.94,3-15.41,20.88a110.24,110.24,0,0,0-12.68-4.91A45.39,45.39,0,0,0,291.93,193.52Z"/>
        <path class="a" d="M442.75,283.56l-29,3-5.94-3-22.62-43.75-9.15,5.48v38.27l-25.14,3-5.93-3V169.14h31.07l5.93,2.5-5.93,47.2a134.41,134.41,0,0,1,9.47-14.64l24-35.06h33.81l5.94,2.5-42,48.76Z"/>
        <path class="a" d="M529.93,248.21a32.22,32.22,0,0,1-5.4,18.4A35.14,35.14,0,0,1,509,279.1q-10.17,4.47-23.87,4.46A99.32,99.32,0,0,1,465.91,282c-1.71-.35-8.58-1.24-10.18-2.14l-5.94-3.31V249.74a94.13,94.13,0,0,0,18.39,6.89,70.36,70.36,0,0,0,17.53,2.48q6.9,0,10.1-2.33a7.09,7.09,0,0,0,3.21-6,6.49,6.49,0,0,0-1.29-4,14.91,14.91,0,0,0-4.15-3.46q-2.86-1.76-15.22-7.16-11.19-5-16.79-9.6a29.6,29.6,0,0,1-8.29-10.67,34.55,34.55,0,0,1-2.71-14.24q0-15.39,11.51-24t31.62-8.61q17.76,0,36.23,8l5.94,2.63-15.41,20.6q-16-7.15-27.7-7.16-6,0-8.77,2.06a6.2,6.2,0,0,0-2.74,5.1c0,2.19,1.17,4.15,3.49,5.87s8.62,4.88,18.9,9.45q14.79,6.46,20.54,13.9T529.93,248.21Z"/>
      </g>
      <g>
        <path class="b" d="M105.81,286.53H74.74V239.69H38.82v46.84H7.75V171.64H38.82v42.59H74.74V171.64h31.07Z"/>
        <path class="b" d="M200.75,286.53l-5.64-21.45H157.94l-5.8,21.45h-34l37.33-114.89h41.24l37.81,114.89Zm-12.06-46.8-4.93-18.79q-1.71-6.25-4.18-16.2t-3.25-14.24q-.71,4-2.78,13.15t-9.2,36.08Z"/>
        <path class="b" d="M297.87,196.49q-11,0-17.22,8.86t-6.18,24.43q0,32.37,25.12,32.36a52.51,52.51,0,0,0,14.72-2.07,150.54,150.54,0,0,0,14.32-5v25.62q-14.33,6.21-32.4,6.21-25.91,0-39.72-14.73T242.7,229.62q0-17.4,6.69-30.6a47.36,47.36,0,0,1,19.25-20.29q12.57-7.09,29.54-7.09a82.74,82.74,0,0,1,35.46,7.9l-9.47,23.85a111,111,0,0,0-12.68-4.91A45.17,45.17,0,0,0,297.87,196.49Z"/>
        <path class="b" d="M448.68,286.53h-34.9L391.16,242.6,382,248.1v38.43H350.93V171.64H382v49.9a138.81,138.81,0,0,1,9.47-14.7l24-35.2h33.81l-36.08,51.47Z"/>
        <path class="b" d="M535.87,251.33a32.59,32.59,0,0,1-5.4,18.52,35.14,35.14,0,0,1-15.58,12.58q-10.17,4.5-23.87,4.49a99.2,99.2,0,0,1-19.17-1.57,72,72,0,0,1-16.12-5.49v-27a92.61,92.61,0,0,0,18.39,6.95,69.94,69.94,0,0,0,17.53,2.49q6.89,0,10.1-2.34a7.15,7.15,0,0,0,3.21-6,6.54,6.54,0,0,0-1.29-4,15.25,15.25,0,0,0-4.15-3.49q-2.86-1.75-15.23-7.21-11.19-5-16.78-9.66a29.76,29.76,0,0,1-8.3-10.74,35,35,0,0,1-2.7-14.34q0-15.5,11.51-24.17t31.61-8.66q17.77,0,36.24,8.05l-9.47,23.4q-16-7.22-27.71-7.21c-4,0-6.94.69-8.76,2.07a6.22,6.22,0,0,0-2.74,5.14c0,2.19,1.16,4.17,3.48,5.9s8.62,4.91,18.9,9.51q14.79,6.52,20.55,14T535.87,251.33Z"/>
      </g>
      <g>
        <rect class="a" x="74.74" y="175.62" width="31.07" height="0.3"/>
        <rect class="a" x="7.75" y="175.62" width="31.07" height="0.3"/>
        <rect class="a" x="7.75" y="180.69" width="31.07" height="0.3"/>
        <rect class="a" x="74.74" y="180.69" width="31.07" height="0.3"/>
        <rect class="a" x="74.74" y="185.77" width="31.07" height="0.3"/>
        <rect class="a" x="7.75" y="185.77" width="31.07" height="0.3"/>
        <rect class="a" x="74.74" y="190.85" width="31.07" height="0.3"/>
        <rect class="a" x="7.75" y="190.85" width="31.07" height="0.3"/>
        <rect class="a" x="74.74" y="195.93" width="31.07" height="0.3"/>
        <rect class="a" x="7.75" y="195.93" width="31.07" height="0.3"/>
        <rect class="a" x="74.74" y="201.01" width="31.07" height="0.3"/>
        <rect class="a" x="7.75" y="201.01" width="31.07" height="0.3"/>
        <rect class="a" x="7.75" y="206.08" width="31.07" height="0.3"/>
        <rect class="a" x="74.74" y="206.08" width="31.07" height="0.3"/>
        <rect class="a" x="74.74" y="211.16" width="31.07" height="0.3"/>
        <rect class="a" x="7.75" y="211.16" width="31.07" height="0.3"/>
        <rect class="a" x="7.75" y="216.24" width="98.06" height="0.3"/>
        <rect class="a" x="7.75" y="221.32" width="98.06" height="0.3"/>
        <rect class="a" x="7.75" y="226.39" width="98.06" height="0.3"/>
        <rect class="a" x="7.75" y="231.47" width="98.06" height="0.3"/>
        <rect class="a" x="7.75" y="236.55" width="98.06" height="0.3"/>
        <rect class="a" x="7.75" y="241.63" width="31.07" height="0.3"/>
        <rect class="a" x="74.74" y="241.63" width="31.07" height="0.3"/>
        <rect class="a" x="74.74" y="246.7" width="31.07" height="0.3"/>
        <rect class="a" x="7.75" y="246.7" width="31.07" height="0.3"/>
        <rect class="a" x="74.74" y="251.78" width="31.07" height="0.3"/>
        <rect class="a" x="7.75" y="251.78" width="31.07" height="0.3"/>
        <rect class="a" x="74.74" y="256.86" width="31.07" height="0.3"/>
        <rect class="a" x="7.75" y="256.86" width="31.07" height="0.3"/>
        <rect class="a" x="74.74" y="261.94" width="31.07" height="0.3"/>
        <rect class="a" x="7.75" y="261.94" width="31.07" height="0.3"/>
        <rect class="a" x="7.75" y="267.02" width="31.07" height="0.3"/>
        <rect class="a" x="74.74" y="267.02" width="31.07" height="0.3"/>
        <rect class="a" x="74.74" y="272.09" width="31.07" height="0.3"/>
        <rect class="a" x="7.75" y="272.09" width="31.07" height="0.3"/>
        <rect class="a" x="74.74" y="277.17" width="31.07" height="0.3"/>
        <rect class="a" x="7.75" y="277.17" width="31.07" height="0.3"/>
        <rect class="a" x="7.75" y="282.25" width="31.07" height="0.3"/>
        <rect class="a" x="74.74" y="282.25" width="31.07" height="0.3"/>
      </g>
      <g>
        <polygon class="a" points="154.22 175.62 154.12 175.92 198.16 175.92 198.06 175.62 154.22 175.62"/>
        <polygon class="a" points="152.57 180.69 152.47 181 199.83 181 199.73 180.69 152.57 180.69"/>
        <polygon class="a" points="150.92 185.77 150.82 186.07 201.5 186.07 201.41 185.77 150.92 185.77"/>
        <path class="a" d="M149.27,190.85l-.1.3h27c0-.09,0-.21,0-.3Z"/>
        <path class="a" d="M176.39,190.85l.06.3h26.72l-.09-.3Z"/>
        <path class="a" d="M175.18,196.23c0-.1,0-.21.07-.3H147.62l-.1.3Z"/>
        <path class="a" d="M177.47,195.93c0,.1,0,.19.07.3h27.31l-.1-.3Z"/>
        <path class="a" d="M174.07,201.31c0-.1.05-.21.07-.3H146l-.1.3Z"/>
        <path class="a" d="M178.66,201c0,.1.05.2.08.3h27.78l-.1-.3Z"/>
        <path class="a" d="M179.91,206.08c0,.11.05.2.08.3h28.2l-.1-.3Z"/>
        <path class="a" d="M172.91,206.38c0-.1.05-.2.07-.3H144.32l-.1.3Z"/>
        <path class="a" d="M181.19,211.16c0,.1.05.2.08.3h28.59l-.1-.3Z"/>
        <path class="a" d="M171.67,211.46l.08-.3H142.67l-.1.3Z"/>
        <path class="a" d="M182.5,216.24c0,.1.06.2.08.3h28.95l-.1-.3Z"/>
        <path class="a" d="M170.39,216.54c0-.11.05-.2.08-.3H141l-.1.3Z"/>
        <path class="a" d="M169.09,221.62c0-.11,0-.2.08-.3h-29.8l-.1.3Z"/>
        <polygon class="a" points="183.86 221.32 183.94 221.62 213.2 221.62 213.1 221.32 183.86 221.32"/>
        <path class="a" d="M167.78,226.69c0-.1.05-.19.07-.3H137.72l-.1.3Z"/>
        <polygon class="a" points="185.19 226.39 185.27 226.69 214.87 226.69 214.77 226.39 185.19 226.39"/>
        <path class="a" d="M166.45,231.77c0-.1.05-.2.08-.3H136.07l-.1.3Z"/>
        <polygon class="a" points="186.53 231.47 186.61 231.77 216.54 231.77 216.44 231.47 186.53 231.47"/>
        <path class="a" d="M165.11,236.85c0-.1.06-.2.08-.3H134.42l-.1.3Z"/>
        <polygon class="a" points="187.86 236.55 187.94 236.85 218.21 236.85 218.11 236.55 187.86 236.55"/>
        <polygon class="a" points="132.77 241.63 132.67 241.93 219.88 241.93 219.78 241.63 132.77 241.63"/>
        <polygon class="a" points="131.12 246.71 131.02 247.01 221.55 247.01 221.45 246.71 131.12 246.71"/>
        <polygon class="a" points="129.47 251.78 129.37 252.08 223.22 252.08 223.12 251.78 129.47 251.78"/>
        <polygon class="a" points="127.82 256.86 127.72 257.16 224.89 257.16 224.79 256.86 127.82 256.86"/>
        <polygon class="a" points="126.17 261.94 126.07 262.24 226.56 262.24 226.47 261.94 126.17 261.94"/>
        <polygon class="a" points="195.62 267.01 195.7 267.32 228.24 267.32 228.14 267.01 195.62 267.01"/>
        <polygon class="a" points="124.52 267.01 124.42 267.32 157.33 267.32 157.41 267.01 124.52 267.01"/>
        <polygon class="a" points="196.95 272.09 197.03 272.39 229.91 272.39 229.81 272.09 196.95 272.09"/>
        <polygon class="a" points="155.96 272.39 156.04 272.09 122.87 272.09 122.77 272.39 155.96 272.39"/>
        <polygon class="a" points="154.59 277.47 154.67 277.17 121.22 277.17 121.12 277.47 154.59 277.47"/>
        <polygon class="a" points="198.29 277.17 198.37 277.47 231.58 277.47 231.48 277.17 198.29 277.17"/>
        <polygon class="a" points="153.22 282.55 153.3 282.25 119.57 282.25 119.47 282.55 153.22 282.55"/>
        <polygon class="a" points="233.15 282.25 199.62 282.25 199.7 282.55 233.25 282.55 233.15 282.25"/>
      </g>
      <g>
        <path class="a" d="M275.24,175.62c-.24.09-.47.2-.71.3h50l-1-.3Z"/>
        <path class="a" d="M265.47,180.69l-.42.3h68l.12-.3Z"/>
        <path class="a" d="M259.17,185.77l-.31.3H331l.12-.3Z"/>
        <path class="a" d="M254.58,190.85l-.23.3H329l.12-.3Z"/>
        <path class="a" d="M251.09,195.93a2.85,2.85,0,0,0-.16.3H327l.12-.3Z"/>
        <path class="a" d="M284.26,201.31c.12-.11.25-.2.38-.3H248.46c0,.1-.09.2-.14.3Z"/>
        <path class="a" d="M318.53,201c.24.09.47.2.71.3H325l.11-.3Z"/>
        <path class="a" d="M246.4,206.08c0,.1-.07.2-.1.3H280l.18-.3Z"/>
        <path class="a" d="M244.9,211.16c0,.1-.05.2-.08.3h32.64l.11-.3Z"/>
        <path class="a" d="M243.81,216.24l-.06.3h32.13l.06-.3Z"/>
        <path class="a" d="M243.1,221.32c0,.09,0,.2,0,.3H275c0-.11,0-.2,0-.3Z"/>
        <path class="a" d="M242.77,226.39v.3h31.78c0-.09,0-.2,0-.3Z"/>
        <path class="a" d="M242.75,231.47c0,.1,0,.2,0,.3h31.76c0-.1,0-.2,0-.3Z"/>
        <path class="a" d="M242.93,236.55l0,.3h31.86c0-.1,0-.2,0-.3Z"/>
        <path class="a" d="M243.45,241.63c0,.09,0,.2,0,.3H275.6l-.06-.3Z"/>
        <path class="a" d="M244.28,246.7l.06.31H277c0-.1-.07-.2-.11-.31Z"/>
        <path class="a" d="M245.49,251.78c0,.1.06.2.08.3H279.4l-.19-.3Z"/>
        <path class="a" d="M323.93,256.86l-.8.3h5.5v-.3Z"/>
        <path class="a" d="M247.28,257.16h36.51l-.34-.3H247.16Z"/>
        <path class="a" d="M304.1,261.94c-1.49.12-3,.2-4.51.2a35.36,35.36,0,0,1-3.64-.2H249.42l.15.3h79.06v-.3Z"/>
        <path class="a" d="M252.43,267c.07.09.13.2.2.3h76V267Z"/>
        <path class="a" d="M256.43,272.09l.08.1.21.2h71.91v-.3Z"/>
        <path class="a" d="M262.2,277.17l.41.3h66v-.3Z"/>
        <path class="a" d="M323.84,282.55c.29-.1.6-.19.89-.3H271.06l.7.3Z"/>
      </g>
      <g>
        <polygon class="a" points="412.79 175.62 412.58 175.92 446.31 175.92 446.52 175.62 412.79 175.62"/>
        <rect class="a" x="350.93" y="175.62" width="31.07" height="0.3"/>
        <rect class="a" x="350.93" y="180.69" width="31.07" height="0.3"/>
        <polygon class="a" points="409.32 180.69 409.12 181 442.75 181 442.96 180.69 409.32 180.69"/>
        <polygon class="a" points="405.85 185.77 405.65 186.07 439.19 186.07 439.4 185.77 405.85 185.77"/>
        <rect class="a" x="350.93" y="185.77" width="31.07" height="0.3"/>
        <polygon class="a" points="402.39 190.85 402.18 191.15 435.63 191.15 435.84 190.85 402.39 190.85"/>
        <rect class="a" x="350.93" y="190.85" width="31.07" height="0.3"/>
        <polygon class="a" points="398.92 195.93 398.72 196.23 432.07 196.23 432.29 195.93 398.92 195.93"/>
        <rect class="a" x="350.93" y="195.93" width="31.07" height="0.3"/>
        <rect class="a" x="350.93" y="201.01" width="31.07" height="0.3"/>
        <polygon class="a" points="395.46 201 395.25 201.31 428.51 201.31 428.73 201 395.46 201"/>
        <rect class="a" x="350.93" y="206.08" width="31.07" height="0.3"/>
        <polygon class="a" points="391.99 206.08 391.79 206.38 424.95 206.38 425.17 206.08 391.99 206.08"/>
        <path class="a" d="M388.47,211.16l-.21.3H421.4l.21-.3Z"/>
        <rect class="a" x="350.93" y="211.16" width="31.07" height="0.3"/>
        <path class="a" d="M385.12,216.24c-.07.1-.12.2-.19.3h32.91l.21-.3Z"/>
        <rect class="a" x="350.93" y="216.24" width="31.07" height="0.3"/>
        <path class="a" d="M382.13,221.32l-.13.22v-.22H350.93v.3h63.35l.21-.3Z"/>
        <polygon class="a" points="350.93 226.39 350.93 226.69 415.23 226.69 415.07 226.39 350.93 226.39"/>
        <polygon class="a" points="350.93 231.47 350.93 231.77 418.07 231.77 417.9 231.47 350.93 231.47"/>
        <polygon class="a" points="350.93 236.55 350.93 236.85 420.91 236.85 420.74 236.55 350.93 236.55"/>
        <polygon class="a" points="350.93 241.63 350.93 241.93 423.75 241.93 423.58 241.63 350.93 241.63"/>
        <polygon class="a" points="350.93 246.71 350.93 247.01 383.82 247.01 384.33 246.71 350.93 246.71"/>
        <polygon class="a" points="393.27 246.71 393.43 247.01 426.59 247.01 426.42 246.71 393.27 246.71"/>
        <polygon class="a" points="395.89 251.78 396.04 252.08 429.43 252.08 429.26 251.78 395.89 251.78"/>
        <rect class="a" x="350.93" y="251.78" width="31.07" height="0.3"/>
        <polygon class="a" points="398.5 256.86 398.66 257.16 432.27 257.16 432.1 256.86 398.5 256.86"/>
        <rect class="a" x="350.93" y="256.86" width="31.07" height="0.3"/>
        <polygon class="a" points="401.12 261.94 401.27 262.24 435.11 262.24 434.94 261.94 401.12 261.94"/>
        <rect class="a" x="350.93" y="261.94" width="31.07" height="0.3"/>
        <polygon class="a" points="403.73 267.01 403.89 267.32 437.94 267.32 437.78 267.01 403.73 267.01"/>
        <rect class="a" x="350.93" y="267.02" width="31.07" height="0.3"/>
        <rect class="a" x="350.93" y="272.09" width="31.07" height="0.3"/>
        <polygon class="a" points="406.35 272.09 406.5 272.39 440.78 272.39 440.61 272.09 406.35 272.09"/>
        <rect class="a" x="350.93" y="277.17" width="31.07" height="0.3"/>
        <polygon class="a" points="408.96 277.17 409.12 277.47 443.62 277.47 443.45 277.17 408.96 277.17"/>
        <rect class="a" x="350.93" y="282.25" width="31.07" height="0.3"/>
        <polygon class="a" points="446.29 282.25 411.57 282.25 411.73 282.55 446.46 282.55 446.29 282.25"/>
      </g>
      <g>
        <path class="a" d="M476.44,175.62l-.72.3h50.13l-1-.3Z"/>
        <path class="a" d="M467.55,180.69c-.12.1-.23.21-.35.3h68.14l.12-.3Z"/>
        <path class="a" d="M462.47,185.77l-.23.3h71l.12-.3Z"/>
        <path class="a" d="M459.32,190.85c-.05.1-.08.2-.12.3h72l.12-.3Z"/>
        <path class="a" d="M500.06,195.93c1.24,0,2.52.14,3.83.3h25.29l.12-.3Z"/>
        <path class="a" d="M457.56,195.93c0,.1-.06.2-.08.3h37a23,23,0,0,1,3.07-.3Z"/>
        <path class="a" d="M487.48,201.31c0-.11.08-.2.11-.3H456.68c0,.09,0,.2,0,.3Z"/>
        <path class="a" d="M521.44,201c.26.1.52.19.78.3h4.9l.12-.3Z"/>
        <path class="a" d="M456.58,206.08c0,.1,0,.2,0,.3h31.6c-.06-.1-.13-.2-.18-.3Z"/>
        <path class="a" d="M457.05,211.16c0,.1,0,.2,0,.3H494.8l-.55-.3Z"/>
        <path class="a" d="M458.25,216.24l.12.3h46.88l-.65-.3Z"/>
        <path class="a" d="M460.52,221.32c.05.09.09.2.15.3H516l-.59-.3Z"/>
        <path class="a" d="M464.26,226.39c.09.1.17.21.26.3h59.55l-.41-.3Z"/>
        <path class="a" d="M470.05,231.47l.42.3h59l-.26-.3Z"/>
        <path class="a" d="M478.68,236.55l.6.3H532.8l-.14-.3Z"/>
        <path class="a" d="M489.71,241.63l.66.3h44.32c0-.1-.05-.2-.08-.3Z"/>
        <path class="a" d="M500,246.7l.45.31h35.22l0-.31Z"/>
        <path class="a" d="M504.63,251.78c0,.1,0,.21.05.3h31.14c0-.1,0-.2,0-.3Z"/>
        <path class="a" d="M465.71,257.16c-.28-.1-.58-.19-.86-.3h-9.12v.3Z"/>
        <path class="a" d="M504.31,256.86c0,.1-.06.2-.11.3h31.17c0-.1,0-.2.06-.3Z"/>
        <path class="a" d="M490.09,262.24q-2.14-.06-4.41-.3H455.73v.3Z"/>
        <path class="a" d="M496.21,261.94a26.08,26.08,0,0,1-3.26.3h41.17c0-.1.08-.2.11-.3Z"/>
        <path class="a" d="M455.73,267v.3H531.9c.05-.1.12-.2.17-.3Z"/>
        <path class="a" d="M455.73,272.09v.3h72.75c.08-.09.15-.2.23-.3Z"/>
        <path class="a" d="M455.73,277.17v.3h67.53c.14-.1.3-.19.44-.3Z"/>
        <path class="a" d="M461.42,282.25l.81.3h52.35c.1,0,.21-.07.31-.12s.24-.12.36-.18Z"/>
      </g>
    </g>
    <polygon class="c" points="536.71 167.57 3.9 171.5 0 167.57 0 159.09 536.71 159.09 540.02 163.01 536.71 167.57"/>
    <rect class="d" x="3.9" y="163.01" width="536.12" height="8.49"/>
    <g>
      <g>
        <path class="e" d="M36.9,160.17l-29,3-3-3V106.23h32l3,3-3,8.67H19.44v8.49H35.61l3,3-3,8.68H19.44v10.18H36.9l3,3Z"/>
        <path class="e" d="M69.85,160.17l-11-38.85h-.34q.78,9.93.78,15.42v23.43l-9.9,3-3-3V106.23H65.75l3,3L77,144.53h.29l11-38.3h19.44l3,3-3,50.92-10.37,3-3-3V136.52c0-1.23,0-2.6,0-4.09s.2-5.18.5-11h-.33L83.72,160.17l-10.85,3Z"/>
        <path class="e" d="M158.55,123.38q0,9-5.33,14t-15.15,4.93H134v17.89l-11.56,3-3-3V106.23h18.67q10.23,0,15.35,4.46c2.86,2.49,7.36,7.57,7.83,11.82C161.34,123.34,158.55,122.49,158.55,123.38Zm-24.57,7h2.65a7.23,7.23,0,0,0,5.22-1.84,6.67,6.67,0,0,0,1.94-5.09c0-3.64-2-5.46-6-5.46H134Z"/>
        <path class="e" d="M217.63,133.13q0,13.19-6.68,20.06t-19.56,6.87q-12.69,0-19.46-6.9t-6.77-20.11q0-13.05,6.73-19.93t19.58-6.89q12.87,0,19.52,6.83T217.63,133.13Zm-37.13,0q0,15.17,10.89,15.16,5.54,0,8.21-3.68t2.68-11.48q0-7.84-2.72-11.57c-1.8-2.5-4.5-3.74-8.09-3.74Q180.51,117.82,180.5,133.13Z"/>
        <path class="e" d="M285.63,160.17l-14.21,3-3-3-5.17-23.5c-.24-1-.63-2.94-1.16-5.87s-.92-5.37-1.16-7.34c-.2,1.6-.52,3.58-1,6s-.88,4.56-1.31,6.55-2.22,10.06-5.37,24.2l-14.21,3-3-3-13.36-53.94h14.06l3,3,2.85,24q2,9,2.73,14.28c.32-2.51.89-5.91,1.71-10.22s1.6-7.87,2.31-10.7l4.76-20.4h13.5l3,3,1.59,17.38q1.17,4.91,2.39,11.33t1.63,9.59q.48-4.1,2.62-14.2l6-27.12h14.06l3,3Z"/>
        <path class="e" d="M337.92,160.17l-29,3-3-3V106.23h32l3,3-3,8.67H320.46v8.49h16.16l3,3-3,8.68H320.46v10.18h17.46l3,3Z"/>
        <path class="e" d="M361.94,140.54v19.63l-11.55,3-3-3V106.23H365c14.66,0,24.92,6.3,25,18.26,0,6.25-6.06,8.76-12.16,12.18l15.71,23.5-13.5,3-3-3-11.43-19.63Zm0-11h2.73q7.63,0,7.64-6.75,0-5.56-7.5-5.57h-2.87Z"/>
        <path class="e" d="M398.5,160.17V106.23h14.65l3,3-3,50.92-11.63,3Z"/>
        <path class="e" d="M476.17,160.17l-16.09,3-3-3-19.71-38H437q.71,9,.71,13.69v24.31l-9.9,3-3-3V106.23h19l3,3,16.61,34.47h.22q-.52-8.16-.52-13.1V106.23h13l3,3Z"/>
        <path class="e" d="M532.78,128.72H509.49v10.93l3,3,6.61-3v8.22a27.18,27.18,0,0,1-6,.61q-6,0-9.1-3.86t-3.15-11.21q0-7.49,3.48-11.53a11,11,0,0,1,3.37-2.62h15.78a26.13,26.13,0,0,1,3.53,1.39l-1.17-1.4h5.35l-4-3.65H491.19q-5.34,6.7-5.35,17.45,0,13,6.81,20t19.28,7A65.89,65.89,0,0,0,532.78,157l3-25.25Z"/>
      </g>
      <g>
        <path class="f" d="M161.57,126.41q0,9-5.33,14T141.1,145.3H137v17.9H122.42V109.25H141.1q10.22,0,15.35,4.46T161.57,126.41Zm-24.57,7h2.66a7.25,7.25,0,0,0,5.22-1.85,6.69,6.69,0,0,0,1.94-5.09q0-5.46-6.06-5.46H137Z"/>
        <path class="f" d="M220.65,136.15q0,13.24-6.68,20.15t-19.56,6.9q-12.69,0-19.46-6.94t-6.77-20.18q0-13.11,6.73-20t19.58-6.91q12.87,0,19.52,6.86T220.65,136.15Zm-37.12,0q0,15.22,10.88,15.23c3.69,0,6.43-1.24,8.22-3.7s2.67-6.31,2.67-11.53-.9-9.12-2.72-11.62-4.5-3.75-8.09-3.75Q183.53,120.78,183.53,136.15Z"/>
        <path class="f" d="M288.65,163.2H271.42l-5.16-23.51q-.37-1.47-1.17-5.87c-.53-2.92-.91-5.37-1.16-7.34q-.3,2.4-1,6c-.44,2.37-.88,4.56-1.31,6.55s-2.22,10.06-5.37,24.21H239.06L225.7,109.25h14.06l5.87,27.05q2,9,2.73,14.28.48-3.77,1.71-10.23t2.31-10.7l4.76-20.4h13.51l4.61,20.4q1.19,4.92,2.4,11.33t1.62,9.6q.48-4.1,2.62-14.21l6-27.12h14.06Z"/>
        <path class="f" d="M340.94,163.2h-32V109.25h32V121H323.48v8.48h16.17v11.7H323.48v10.18h17.46Z"/>
        <path class="f" d="M39.92,163.2h-32V109.25h32V121H22.47v8.48H38.63v11.7H22.47v10.18H39.92Z"/>
        <path class="f" d="M365,143.57V163.2H350.39V109.25h17.67q22,0,22,15.94,0,9.38-9.15,14.5l15.72,23.51H380.09l-11.44-19.63Zm0-11h2.73q7.63,0,7.64-6.76,0-5.56-7.49-5.57H365Z"/>
        <path class="f" d="M401.52,163.2V109.25h14.66V163.2Z"/>
        <path class="f" d="M479.19,163.2H460.08l-19.7-38h-.33q.69,9,.7,13.69V163.2H427.83V109.25h19l19.63,37.49h.22q-.51-8.16-.51-13.1V109.25h13Z"/>
        <path class="f" d="M72.87,163.2l-11-38.86h-.33q.77,9.93.77,15.42V163.2H49.36V109.25H68.78L80,147.55h.29l11-38.3H110.8V163.2H97.41V139.54c0-1.23,0-2.59,0-4.09s.21-5.18.5-11h-.33L86.74,163.2Z"/>
        <path class="f" d="M512.51,131.73v11h9.63v8.22a27.18,27.18,0,0,1-6,.61q-5.94,0-9.1-3.86t-3.15-11.22q0-7.51,3.48-11.55t9.87-4a29.17,29.17,0,0,1,12.81,2.8l1.83-4.41H493.72q-4.86,6.58-4.86,16.84,0,13,6.81,20.08t19.28,7A65.8,65.8,0,0,0,535.8,160V131.73Z"/>
      </g>
      <g>
        <path class="e" d="M122.42,114h34.27c-.09-.08-.15-.19-.24-.27l-.06,0h-34Z"/>
        <path class="e" d="M122.42,118.64v.3H160.2c0-.1-.12-.19-.17-.3Z"/>
        <path class="e" d="M146.19,123.61c.05.1.11.19.16.3h15c0-.1,0-.2,0-.3Z"/>
        <rect class="e" x="122.42" y="123.61" width="14.58" height="0.3"/>
        <path class="e" d="M146.54,128.58c0,.1,0,.2-.08.3h14.92l0-.3Z"/>
        <rect class="e" x="122.42" y="128.58" width="14.58" height="0.3"/>
        <path class="e" d="M122.42,133.54v.3h38c0-.09.05-.2.09-.3Z"/>
        <path class="e" d="M122.42,138.51v.3h35.16l.26-.3Z"/>
        <path class="e" d="M122.42,143.48v.3h28c.24-.09.45-.21.69-.3Z"/>
        <rect class="e" x="122.42" y="148.44" width="14.58" height="0.3"/>
        <rect class="e" x="122.42" y="153.41" width="14.58" height="0.3"/>
        <rect class="e" x="122.42" y="158.38" width="14.58" height="0.3"/>
      </g>
      <g>
        <path class="e" d="M177.75,113.68c-.14.1-.28.19-.42.3h34.34c-.14-.11-.28-.2-.42-.3Z"/>
        <path class="e" d="M172.82,118.64l-.21.3h43.71l-.2-.3Z"/>
        <path class="e" d="M201.73,123.61l.28.3h16.76c0-.1-.07-.2-.11-.3Z"/>
        <path class="e" d="M170.22,123.61l-.12.3h16.82l.27-.3Z"/>
        <path class="e" d="M184.39,128.88c0-.11.07-.2.1-.3H168.85l-.06.3Z"/>
        <path class="e" d="M204.39,128.58a2.63,2.63,0,0,1,.09.3h15.57l-.06-.3Z"/>
        <path class="e" d="M183.64,133.84c0-.09,0-.2,0-.3H168.26a2.91,2.91,0,0,1,0,.3Z"/>
        <path class="e" d="M205.18,133.54c0,.1,0,.21,0,.3h15.39a2.91,2.91,0,0,1,0-.3Z"/>
        <path class="e" d="M205.19,138.51c0,.1,0,.2,0,.3h15.38c0-.1,0-.2,0-.3Z"/>
        <path class="e" d="M183.65,138.81c0-.1,0-.2,0-.3H168.26c0,.1,0,.2,0,.3Z"/>
        <path class="e" d="M184.52,143.78c0-.11-.07-.2-.1-.3h-15.6l.06.3Z"/>
        <path class="e" d="M204.46,143.48c0,.1-.06.19-.09.3H220l.06-.3Z"/>
        <path class="e" d="M187.33,148.74a4,4,0,0,1-.28-.3H170.14l.12.3Z"/>
        <path class="e" d="M201.91,148.44a4,4,0,0,1-.28.3h17l.12-.3Z"/>
        <path class="e" d="M172.67,153.41l.2.3h43.18l.2-.3Z"/>
        <path class="e" d="M211.14,158.68l.42-.3H177.42l.42.3Z"/>
      </g>
      <g>
        <polygon class="e" points="226.87 113.98 240.79 113.98 240.72 113.68 226.8 113.68 226.87 113.98"/>
        <polygon class="e" points="256.11 113.68 256.04 113.98 271.71 113.98 271.65 113.68 256.11 113.68"/>
        <polygon class="e" points="286.9 113.68 286.83 113.98 300.77 113.98 300.85 113.68 286.9 113.68"/>
        <polygon class="e" points="254.95 118.64 254.88 118.94 272.84 118.94 272.77 118.64 254.95 118.64"/>
        <polygon class="e" points="285.81 118.64 285.74 118.94 299.55 118.94 299.62 118.64 285.81 118.64"/>
        <polygon class="e" points="241.86 118.94 241.8 118.64 228.03 118.64 228.1 118.94 241.86 118.94"/>
        <polygon class="e" points="284.71 123.61 284.65 123.91 298.33 123.91 298.4 123.61 284.71 123.61"/>
        <polygon class="e" points="242.94 123.91 242.88 123.61 229.26 123.61 229.33 123.91 242.94 123.91"/>
        <polygon class="e" points="253.79 123.61 253.72 123.91 273.96 123.91 273.89 123.61 253.79 123.61"/>
        <polygon class="e" points="283.62 128.57 283.55 128.88 297.1 128.88 297.18 128.57 283.62 128.57"/>
        <polygon class="e" points="244.02 128.88 243.95 128.57 230.49 128.57 230.56 128.88 244.02 128.88"/>
        <path class="e" d="M252.63,128.58l-.07.3h11a2.72,2.72,0,0,1,0-.3Z"/>
        <path class="e" d="M264.22,128.58c0,.09,0,.2,0,.3h10.81l-.06-.3Z"/>
        <polygon class="e" points="282.52 133.54 282.46 133.84 295.88 133.84 295.95 133.54 282.52 133.54"/>
        <path class="e" d="M265,133.54c0,.1,0,.19,0,.28v0h11.11c0-.1,0-.2-.07-.3Z"/>
        <polygon class="e" points="245.1 133.84 245.03 133.54 231.72 133.54 231.79 133.84 245.1 133.84"/>
        <path class="e" d="M262.7,133.84c0-.1,0-.19.06-.3H251.47l-.06.3Z"/>
        <path class="e" d="M246.17,138.81l-.06-.3H233l.07.3Z"/>
        <path class="e" d="M281.45,138.51l-.06.3h13.27l.07-.3Z"/>
        <path class="e" d="M261.7,138.81l.06-.3H250.44l-.06.3Z"/>
        <path class="e" d="M266,138.51c0,.1,0,.21.06.3h11.18c0-.1,0-.2-.05-.3Z"/>
        <path class="e" d="M247.19,143.78c0-.1,0-.21-.06-.3H234.18l.07.3Z"/>
        <path class="e" d="M280.46,143.48l-.06.3h13l.08-.3Z"/>
        <path class="e" d="M260.61,143.78a2.64,2.64,0,0,1,.07-.3H249.49c0,.1,0,.19-.05.3Z"/>
        <path class="e" d="M267.09,143.48l.07.3h11l-.06-.3Z"/>
        <path class="e" d="M279,148.44H268.18l.07.3H279C279,148.65,279,148.54,279,148.44Z"/>
        <path class="e" d="M259.51,148.74l.06-.3H248.66c0,.11,0,.2,0,.3Z"/>
        <path class="e" d="M248.08,148.74c0-.1,0-.19-.05-.3H235.41l.07.3Z"/>
        <path class="e" d="M279.58,148.44c0,.11,0,.2-.05.3h12.68l.08-.3Z"/>
        <path class="e" d="M258.4,153.71c0-.11.05-.19.07-.3H236.64l.07.3Z"/>
        <polygon class="e" points="269.27 153.41 269.34 153.71 290.99 153.71 291.06 153.41 269.27 153.41"/>
        <path class="e" d="M257.3,158.68c0-.1,0-.21.06-.3H237.87l.07.3Z"/>
        <polygon class="e" points="289.84 158.38 270.36 158.38 270.43 158.68 289.76 158.68 289.84 158.38"/>
      </g>
      <g>
        <rect class="e" x="308.91" y="113.68" width="32.03" height="0.3"/>
        <rect class="e" x="308.91" y="118.64" width="32.03" height="0.3"/>
        <rect class="e" x="308.91" y="123.61" width="14.57" height="0.3"/>
        <rect class="e" x="308.91" y="128.58" width="14.57" height="0.3"/>
        <rect class="e" x="308.91" y="133.54" width="30.73" height="0.3"/>
        <rect class="e" x="308.91" y="138.51" width="30.73" height="0.3"/>
        <rect class="e" x="308.91" y="143.48" width="14.57" height="0.3"/>
        <rect class="e" x="308.91" y="148.44" width="14.57" height="0.3"/>
        <rect class="e" x="308.91" y="153.41" width="32.03" height="0.3"/>
        <rect class="e" x="308.91" y="158.38" width="32.03" height="0.3"/>
      </g>
      <g>
        <path class="e" d="M350.39,113.68v.3h35.07c-.12-.11-.25-.2-.37-.3Z"/>
        <path class="e" d="M350.39,118.64v.3H389l-.12-.3Z"/>
        <path class="e" d="M374.92,123.61a2.63,2.63,0,0,1,.09.3h15c0-.1,0-.2,0-.3Z"/>
        <rect class="e" x="350.39" y="123.61" width="14.57" height="0.3"/>
        <path class="e" d="M374.91,128.58c0,.09-.06.2-.09.3h14.81c0-.1,0-.2.06-.3Z"/>
        <rect class="e" x="350.39" y="128.58" width="14.57" height="0.3"/>
        <path class="e" d="M350.39,133.54v.3h37.12a3.3,3.3,0,0,0,.22-.3Z"/>
        <path class="e" d="M350.39,138.51v.3H382.3l.48-.3Z"/>
        <polygon class="e" points="350.38 143.48 350.38 143.78 364.96 143.78 364.96 143.57 368.65 143.57 368.77 143.78 383.63 143.78 383.43 143.48 350.38 143.48"/>
        <rect class="e" x="350.39" y="148.44" width="14.57" height="0.3"/>
        <polygon class="e" points="371.49 148.44 371.67 148.74 386.95 148.74 386.75 148.44 371.49 148.44"/>
        <polygon class="e" points="374.38 153.41 374.56 153.71 390.27 153.71 390.07 153.41 374.38 153.41"/>
        <rect class="e" x="350.39" y="153.41" width="14.57" height="0.3"/>
        <rect class="e" x="350.39" y="158.38" width="14.57" height="0.3"/>
        <polygon class="e" points="393.39 158.38 377.28 158.38 377.45 158.68 393.6 158.68 393.39 158.38"/>
      </g>
      <g>
        <rect class="e" x="401.52" y="113.68" width="14.65" height="0.3"/>
        <rect class="e" x="401.52" y="118.64" width="14.65" height="0.3"/>
        <rect class="e" x="401.52" y="123.61" width="14.65" height="0.3"/>
        <rect class="e" x="401.52" y="128.58" width="14.65" height="0.3"/>
        <rect class="e" x="401.52" y="133.54" width="14.65" height="0.3"/>
        <rect class="e" x="401.52" y="138.51" width="14.65" height="0.3"/>
        <rect class="e" x="401.52" y="143.48" width="14.65" height="0.3"/>
        <rect class="e" x="401.52" y="148.44" width="14.65" height="0.3"/>
        <rect class="e" x="401.52" y="153.41" width="14.65" height="0.3"/>
        <rect class="e" x="401.52" y="158.38" width="14.65" height="0.3"/>
      </g>
      <g>
        <rect class="e" x="466.21" y="113.68" width="12.99" height="0.3"/>
        <polygon class="e" points="427.83 113.68 427.83 113.98 449.35 113.98 449.19 113.68 427.83 113.68"/>
        <rect class="e" x="466.21" y="118.64" width="12.99" height="0.3"/>
        <polygon class="e" points="451.95 118.94 451.79 118.64 427.83 118.64 427.83 118.94 451.95 118.94"/>
        <rect class="e" x="466.21" y="123.61" width="12.99" height="0.3"/>
        <polygon class="e" points="454.55 123.91 454.39 123.61 427.83 123.61 427.83 123.91 454.55 123.91"/>
        <polygon class="e" points="442.13 128.57 442.29 128.88 457.15 128.88 456.99 128.57 442.13 128.57"/>
        <path class="e" d="M440.31,128.88a2.83,2.83,0,0,0,0-.3H427.83v.3Z"/>
        <rect class="e" x="466.21" y="128.58" width="12.99" height="0.3"/>
        <polygon class="e" points="444.71 133.54 444.86 133.84 459.75 133.84 459.59 133.54 444.71 133.54"/>
        <path class="e" d="M466.21,133.54v.3h13v-.3Z"/>
        <path class="e" d="M440.6,133.84c0-.1,0-.19,0-.3H427.83v.3Z"/>
        <path class="e" d="M440.75,138.81c0-.09,0-.21,0-.3H427.83v.3Z"/>
        <polygon class="e" points="447.28 138.51 447.44 138.81 462.35 138.81 462.19 138.51 447.28 138.51"/>
        <path class="e" d="M466.31,138.51c0,.1,0,.2,0,.3h12.87v-.3Z"/>
        <polygon class="e" points="464.95 143.78 464.79 143.48 449.86 143.48 450.01 143.78 464.95 143.78"/>
        <rect class="e" x="427.83" y="143.48" width="12.92" height="0.3"/>
        <path class="e" d="M466.53,143.48a2.83,2.83,0,0,1,0,.3h12.64v-.3Z"/>
        <rect class="e" x="427.83" y="148.44" width="12.92" height="0.3"/>
        <polygon class="e" points="452.43 148.44 452.59 148.74 479.19 148.74 479.19 148.44 452.43 148.44"/>
        <polygon class="e" points="455.01 153.41 455.17 153.71 479.19 153.71 479.19 153.41 455.01 153.41"/>
        <rect class="e" x="427.83" y="153.41" width="12.92" height="0.3"/>
        <polygon class="e" points="479.19 158.38 457.58 158.38 457.74 158.68 479.19 158.68 479.19 158.38"/>
        <rect class="e" x="427.83" y="158.38" width="12.92" height="0.3"/>
      </g>
      <g>
        <path class="e" d="M530,123.61l.1,0v0Z"/>
        <path class="e" d="M491.3,123.61c-.05.1-.08.2-.12.3h17.29c.11-.1.21-.21.33-.3Z"/>
        <path class="e" d="M489.71,128.58l-.06.3h15.52a2.68,2.68,0,0,1,.12-.3Z"/>
        <rect class="e" x="512.51" y="133.54" width="23.28" height="0.3"/>
        <path class="e" d="M489,133.54c0,.1,0,.2,0,.3h15.08c0-.09,0-.2,0-.3Z"/>
        <rect class="e" x="512.51" y="138.51" width="23.28" height="0.3"/>
        <path class="e" d="M504.05,138.81c0-.1,0-.2,0-.3H489c0,.1,0,.2,0,.3Z"/>
        <rect class="e" x="522.14" y="143.48" width="13.66" height="0.3"/>
        <path class="e" d="M505,143.78c0-.11-.08-.2-.11-.3H489.53l.06.3Z"/>
        <path class="e" d="M508.19,148.74l-.31-.3h-17l.12.3Z"/>
        <rect class="e" x="522.14" y="148.44" width="13.66" height="0.3"/>
        <path class="e" d="M493.47,153.41l.2.3H535.8v-.3Z"/>
        <path class="e" d="M535.8,158.68v-.3H498.25l.41.3Z"/>
      </g>
      <g>
        <rect class="e" x="7.89" y="113.68" width="32.03" height="0.3"/>
        <rect class="e" x="7.89" y="118.64" width="32.03" height="0.3"/>
        <rect class="e" x="7.89" y="123.61" width="14.58" height="0.3"/>
        <rect class="e" x="7.89" y="128.58" width="14.58" height="0.3"/>
        <rect class="e" x="7.89" y="133.54" width="30.74" height="0.3"/>
        <rect class="e" x="7.89" y="138.51" width="30.74" height="0.3"/>
        <rect class="e" x="7.89" y="143.48" width="14.58" height="0.3"/>
        <rect class="e" x="7.89" y="148.44" width="14.58" height="0.3"/>
        <rect class="e" x="7.89" y="153.41" width="32.03" height="0.3"/>
        <rect class="e" x="7.89" y="158.38" width="32.03" height="0.3"/>
      </g>
      <g>
        <polygon class="e" points="90.08 113.68 90 113.98 110.8 113.98 110.8 113.68 90.08 113.68"/>
        <polygon class="e" points="49.37 113.68 49.37 113.98 70.17 113.98 70.08 113.68 49.37 113.68"/>
        <polygon class="e" points="71.62 118.94 71.54 118.64 49.37 118.64 49.37 118.94 71.62 118.94"/>
        <polygon class="e" points="88.65 118.64 88.57 118.94 110.8 118.94 110.8 118.64 88.65 118.64"/>
        <polygon class="e" points="87.22 123.61 87.14 123.91 110.8 123.91 110.8 123.61 87.22 123.61"/>
        <polygon class="e" points="73.08 123.91 73 123.61 49.37 123.61 49.37 123.91 73.08 123.91"/>
        <path class="e" d="M97.76,128.58c0,.1,0,.19,0,.3H110.8v-.3Z"/>
        <polygon class="e" points="63.13 128.88 74.54 128.88 74.45 128.57 63.04 128.57 63.13 128.88"/>
        <path class="e" d="M61.83,128.88a2.83,2.83,0,0,0,0-.3H49.36v.3Z"/>
        <polygon class="e" points="85.79 128.57 85.7 128.88 96.38 128.88 96.46 128.57 85.79 128.57"/>
        <polygon class="e" points="64.45 133.54 64.54 133.84 76 133.84 75.91 133.54 64.45 133.54"/>
        <path class="e" d="M97.53,133.54c0,.1,0,.21,0,.3H110.8v-.3Z"/>
        <polygon class="e" points="84.36 133.54 84.27 133.84 94.98 133.84 95.07 133.54 84.36 133.54"/>
        <path class="e" d="M62.12,133.84c0-.1,0-.19,0-.3H49.36v.3Z"/>
        <path class="e" d="M97.42,138.51c0,.1,0,.2,0,.3H110.8v-.3Z"/>
        <polygon class="e" points="77.46 138.81 77.37 138.51 65.86 138.51 65.95 138.81 77.46 138.81"/>
        <path class="e" d="M62.27,138.81c0-.1,0-.2,0-.3H49.36v.3Z"/>
        <polygon class="e" points="82.93 138.51 82.84 138.81 93.59 138.81 93.67 138.51 82.93 138.51"/>
        <polygon class="e" points="78.92 143.78 78.83 143.48 67.27 143.48 67.36 143.78 78.92 143.78"/>
        <polygon class="e" points="81.5 143.48 81.41 143.78 92.19 143.78 92.28 143.48 81.5 143.48"/>
        <rect class="e" x="49.36" y="143.48" width="12.92" height="0.3"/>
        <rect class="e" x="97.41" y="143.48" width="13.39" height="0.3"/>
        <rect class="e" x="97.41" y="148.44" width="13.39" height="0.3"/>
        <polygon class="e" points="68.68 148.44 68.77 148.74 90.8 148.74 90.89 148.44 68.68 148.44"/>
        <rect class="e" x="49.36" y="148.44" width="12.92" height="0.3"/>
        <rect class="e" x="97.41" y="153.41" width="13.39" height="0.3"/>
        <rect class="e" x="49.36" y="153.41" width="12.92" height="0.3"/>
        <polygon class="e" points="89.41 153.71 89.49 153.41 70.09 153.41 70.18 153.71 89.41 153.71"/>
        <polygon class="e" points="88.1 158.38 71.5 158.38 71.59 158.68 88.01 158.68 88.1 158.38"/>
        <rect class="e" x="49.36" y="158.38" width="12.92" height="0.3"/>
        <rect class="e" x="97.41" y="158.38" width="13.39" height="0.3"/>
      </g>
    </g>
    <g>
      <polygon class="g" points="543.34 37.4 3.82 40.42 0.8 37.4 0.8 28.33 543.34 28.33 543.34 37.4"/>
      <path class="g" d="M535.58,0h-7.74a16.58,16.58,0,0,0-16.53,16.53V51.19a16.56,16.56,0,0,0,9.59,15L526,80.84c.86,2.51,4,4.09,6.11,4.9,5.2,2-.9-.93,4.3,1.1.88.35.38-4.89.75-5.92l5.34-14.74a16.57,16.57,0,0,0,9.62-15V16.53A16.57,16.57,0,0,0,535.58,0Z"/>
      <rect class="h" x="3.82" y="31.35" width="542.55" height="9.07"/>
      <path class="e" d="M531.88,123.42a5.77,5.77,0,0,0,3.78-1.24c3.14-2.57,2.77-8.11,2.08-18.16-.24-3.53-.52-14.29-.7-19l-4.53.18c.18,4.72.46,15.53.71,19.1.46,6.81,1.18,13.74-.43,14.35a5.88,5.88,0,0,1-2.7-.18"/>
      <g>
        <path class="f" d="M533.39,124.14a12.93,12.93,0,0,1-3.33-.51l.23-4.41a7.2,7.2,0,0,0,4,.18c1.32-1.1.89-7.48.42-14.25-.24-3.55-.52-15.29-.7-20l4.52-.17c.18,4.64.46,16.34.71,19.85.68,10,1.06,15.49-2.07,18.06A5.8,5.8,0,0,1,533.39,124.14Z"/>
        <path class="h" d="M540.26,2h-7.74A16.57,16.57,0,0,0,516,18.55V53.21a16.57,16.57,0,0,0,9.58,15l5.09,14.68a5.92,5.92,0,0,0,11.16.08l5.34-14.74a16.57,16.57,0,0,0,9.62-15V18.55A16.56,16.56,0,0,0,540.26,2Z"/>
      </g>
    </g>
  </g>
</svg>
