<svg xmlns="http://www.w3.org/2000/svg" xmlns:xlink="http://www.w3.org/1999/xlink" width="248.84mm" height="101.22mm" viewBox="0 0 705.39 286.92">
  <defs>
    <style>
      .a, .f {
        fill: none;
      }

      .b {
        fill: #0b3958;
      }

      .c {
        fill: #2472a5;
      }

      .d {
        fill: #8b5014;
      }

      .e {
        clip-path: url(#a);
      }

      .f {
        stroke: #8b1812;
        stroke-miterlimit: 10;
        stroke-width: 0.1px;
      }

      .g {
        fill: #f59f31;
      }

      .h {
        fill: #8b1812;
      }

      .i {
        fill: #e94634;
      }

      .j {
        fill: #fff;
      }

      .k {
        fill: #1e1e1c;
      }

      .l {
        fill: #3d3d3b;
      }
    </style>
    <clipPath id="a" transform="translate(-20.2 -271.83)">
      <path class="a" d="M67.75,435h-32V381.08h32v11.69H50.3v8.49H66.46V413H50.3v10.18H67.75Z"/>
    </clipPath>
  </defs>
  <title>Logo_empowering_hacks</title>
  <g>
    <g>
      <path class="b" d="M127.71,555.39l-25.13,3-5.94-3V508.74H60.72v46.65l-25.14,3-5.93-3V441H60.72l5.93,2.5-5.93,39.92H96.64V441h31.07l5.94,2.5Z" transform="translate(-20.2 -271.83)"/>
      <path class="b" d="M222.64,555.39,217,534H179.83L174,555.39l-28,3-5.93-3L177.41,440.5h41.24l5.94,3,31.86,111.92-27.87,3Zm-12-46.8-4.93-18.79q-1.72-6.26-4.19-16.2t-3.24-14.24q-.71,4-2.78,13.15t-9.2,36.08Z" transform="translate(-20.2 -271.83)"/>
      <path class="b" d="M319.77,465.35q-11,0-17.22,8.86t-6.18,24.43q0,32.37,25.12,32.37a52.39,52.39,0,0,0,14.71-2.07,149.86,149.86,0,0,0,14.33-5l5.93,3-5.93,22.65q-14.32,6.21-32.41,6.21-25.9,0-39.71-14.73t-13.82-42.57q0-17.4,6.7-30.6a47.28,47.28,0,0,1,19.25-20.28q12.56-7.1,29.54-7.1a82.84,82.84,0,0,1,35.45,7.9l5.94,3-15.41,20.88a110.1,110.1,0,0,0-12.67-4.91A45.17,45.17,0,0,0,319.77,465.35Z" transform="translate(-20.2 -271.83)"/>
      <path class="b" d="M470.58,555.39l-29,3-5.93-3-22.62-43.75-9.16,5.48v38.27l-25.13,3-5.94-3V441H403.9l5.94,2.5-5.94,47.2A136,136,0,0,1,413.37,476l24-35.06h33.81l5.93,2.5-42,48.76Z" transform="translate(-20.2 -271.83)"/>
      <path class="b" d="M557.77,520a32.22,32.22,0,0,1-5.4,18.4,35.11,35.11,0,0,1-15.58,12.49q-10.17,4.47-23.87,4.46a99.14,99.14,0,0,1-19.17-1.56c-1.72-.35-8.59-1.24-10.19-2.14l-5.93-3.31V521.57A93.66,93.66,0,0,0,496,528.46a70.3,70.3,0,0,0,17.53,2.48q6.88,0,10.09-2.33a7.09,7.09,0,0,0,3.21-6,6.49,6.49,0,0,0-1.29-4,14.91,14.91,0,0,0-4.15-3.46q-2.85-1.75-15.22-7.16-11.19-5-16.78-9.6a29.52,29.52,0,0,1-8.3-10.67,34.56,34.56,0,0,1-2.7-14.24q0-15.39,11.5-24t31.62-8.61q17.76,0,36.24,8l5.93,2.63-15.4,20.6q-16-7.15-27.71-7.16-6,0-8.76,2.06a6.17,6.17,0,0,0-2.74,5.1q0,3.28,3.48,5.87t18.9,9.45q14.79,6.46,20.55,13.9T557.77,520Z" transform="translate(-20.2 -271.83)"/>
    </g>
    <g>
      <path class="c" d="M133.65,558.36H102.58V511.52H66.65v46.84H35.58V443.47H66.65v42.59h35.93V443.47h31.07Z" transform="translate(-20.2 -271.83)"/>
      <path class="c" d="M228.58,558.36l-5.64-21.45H185.77L180,558.36H146l37.33-114.89h41.25l37.8,114.89Zm-12.05-46.8-4.93-18.79q-1.72-6.25-4.19-16.2t-3.25-14.24q-.71,4-2.78,13.15t-9.19,36.08Z" transform="translate(-20.2 -271.83)"/>
      <path class="c" d="M325.7,468.32a19.81,19.81,0,0,0-17.21,8.86q-6.19,8.85-6.19,24.43,0,32.37,25.13,32.36a52.44,52.44,0,0,0,14.71-2.07,149.58,149.58,0,0,0,14.32-5v25.62q-14.32,6.21-32.4,6.21-25.9,0-39.72-14.73t-13.81-42.57q0-17.4,6.69-30.6a47.36,47.36,0,0,1,19.25-20.29q12.57-7.1,29.55-7.09a82.72,82.72,0,0,1,35.45,7.9L352,475.22a108.43,108.43,0,0,0-12.68-4.91A45.08,45.08,0,0,0,325.7,468.32Z" transform="translate(-20.2 -271.83)"/>
      <path class="c" d="M476.52,558.36H441.61L419,514.43l-9.15,5.5v38.43H378.77V443.47h31.07v49.9a135.55,135.55,0,0,1,9.47-14.7l24-35.2h33.81l-36.08,51.47Z" transform="translate(-20.2 -271.83)"/>
      <path class="c" d="M563.7,523.16a32.59,32.59,0,0,1-5.4,18.52,35.17,35.17,0,0,1-15.57,12.58q-10.17,4.49-23.87,4.49a99.24,99.24,0,0,1-19.18-1.57,72.21,72.21,0,0,1-16.12-5.49v-27A93.7,93.7,0,0,0,502,531.64a69.94,69.94,0,0,0,17.53,2.49q6.9,0,10.1-2.34a7.15,7.15,0,0,0,3.21-6,6.54,6.54,0,0,0-1.29-4,14.94,14.94,0,0,0-4.15-3.49q-2.86-1.77-15.22-7.21-11.19-5-16.79-9.66a29.73,29.73,0,0,1-8.29-10.74,35,35,0,0,1-2.71-14.34q0-15.49,11.51-24.17t31.62-8.66q17.76,0,36.23,8l-9.47,23.39q-16-7.2-27.7-7.21-6,0-8.77,2.08a6.24,6.24,0,0,0-2.74,5.13c0,2.2,1.17,4.17,3.49,5.91s8.62,4.91,18.9,9.51q14.79,6.53,20.54,14T563.7,523.16Z" transform="translate(-20.2 -271.83)"/>
    </g>
    <g>
      <rect class="b" x="82.37" y="175.62" width="31.07" height="0.3"/>
      <rect class="b" x="15.38" y="175.62" width="31.07" height="0.3"/>
      <rect class="b" x="15.38" y="180.69" width="31.07" height="0.3"/>
      <rect class="b" x="82.37" y="180.69" width="31.07" height="0.3"/>
      <rect class="b" x="82.37" y="185.77" width="31.07" height="0.3"/>
      <rect class="b" x="15.38" y="185.77" width="31.07" height="0.3"/>
      <rect class="b" x="82.37" y="190.85" width="31.07" height="0.3"/>
      <rect class="b" x="15.38" y="190.85" width="31.07" height="0.3"/>
      <rect class="b" x="82.37" y="195.93" width="31.07" height="0.3"/>
      <rect class="b" x="15.38" y="195.93" width="31.07" height="0.3"/>
      <rect class="b" x="82.37" y="201.01" width="31.07" height="0.3"/>
      <rect class="b" x="15.38" y="201.01" width="31.07" height="0.3"/>
      <rect class="b" x="15.38" y="206.08" width="31.07" height="0.3"/>
      <rect class="b" x="82.37" y="206.08" width="31.07" height="0.3"/>
      <rect class="b" x="82.37" y="211.16" width="31.07" height="0.3"/>
      <rect class="b" x="15.38" y="211.16" width="31.07" height="0.3"/>
      <rect class="b" x="15.38" y="216.24" width="98.06" height="0.3"/>
      <rect class="b" x="15.38" y="221.32" width="98.06" height="0.3"/>
      <rect class="b" x="15.38" y="226.39" width="98.06" height="0.3"/>
      <rect class="b" x="15.38" y="231.47" width="98.06" height="0.3"/>
      <rect class="b" x="15.38" y="236.55" width="98.06" height="0.3"/>
      <rect class="b" x="15.38" y="241.63" width="31.07" height="0.3"/>
      <rect class="b" x="82.37" y="241.63" width="31.07" height="0.3"/>
      <rect class="b" x="82.37" y="246.7" width="31.07" height="0.3"/>
      <rect class="b" x="15.38" y="246.7" width="31.07" height="0.3"/>
      <rect class="b" x="82.37" y="251.78" width="31.07" height="0.3"/>
      <rect class="b" x="15.38" y="251.78" width="31.07" height="0.3"/>
      <rect class="b" x="82.37" y="256.86" width="31.07" height="0.3"/>
      <rect class="b" x="15.38" y="256.86" width="31.07" height="0.3"/>
      <rect class="b" x="82.37" y="261.94" width="31.07" height="0.3"/>
      <rect class="b" x="15.38" y="261.94" width="31.07" height="0.3"/>
      <rect class="b" x="15.38" y="267.02" width="31.07" height="0.3"/>
      <rect class="b" x="82.37" y="267.02" width="31.07" height="0.3"/>
      <rect class="b" x="82.37" y="272.09" width="31.07" height="0.3"/>
      <rect class="b" x="15.38" y="272.09" width="31.07" height="0.3"/>
      <rect class="b" x="82.37" y="277.17" width="31.07" height="0.3"/>
      <rect class="b" x="15.38" y="277.17" width="31.07" height="0.3"/>
      <rect class="b" x="15.38" y="282.25" width="31.07" height="0.3"/>
      <rect class="b" x="82.37" y="282.25" width="31.07" height="0.3"/>
    </g>
    <g>
      <polygon class="b" points="161.85 175.62 161.75 175.92 205.79 175.92 205.7 175.62 161.85 175.62"/>
      <polygon class="b" points="160.2 180.69 160.1 181 207.47 181 207.37 180.69 160.2 180.69"/>
      <polygon class="b" points="158.55 185.77 158.45 186.07 209.14 186.07 209.04 185.77 158.55 185.77"/>
      <path class="b" d="M177.1,462.68l-.1.3h27l.06-.3Z" transform="translate(-20.2 -271.83)"/>
      <path class="b" d="M204.23,462.68l.06.3H231l-.1-.3Z" transform="translate(-20.2 -271.83)"/>
      <path class="b" d="M203,468.06l.06-.3H175.45l-.1.3Z" transform="translate(-20.2 -271.83)"/>
      <path class="b" d="M205.3,467.76c0,.1,0,.19.07.3h27.31l-.1-.3Z" transform="translate(-20.2 -271.83)"/>
      <path class="b" d="M201.91,473.14l.06-.31H173.8l-.1.31Z" transform="translate(-20.2 -271.83)"/>
      <path class="b" d="M206.5,472.83c0,.1,0,.21.07.31h27.78l-.1-.31Z" transform="translate(-20.2 -271.83)"/>
      <path class="b" d="M207.75,477.91c0,.1.05.2.07.3H236l-.1-.3Z" transform="translate(-20.2 -271.83)"/>
      <path class="b" d="M200.75,478.21c0-.1,0-.2.07-.3H172.15l-.1.3Z" transform="translate(-20.2 -271.83)"/>
      <path class="b" d="M209,483c0,.1.05.2.07.3h28.59l-.1-.3Z" transform="translate(-20.2 -271.83)"/>
      <path class="b" d="M199.5,483.29l.08-.3H170.5l-.1.3Z" transform="translate(-20.2 -271.83)"/>
      <path class="b" d="M210.34,488.07c0,.1,0,.2.08.3h28.94l-.1-.3Z" transform="translate(-20.2 -271.83)"/>
      <path class="b" d="M198.23,488.37c0-.11.05-.2.07-.3H168.85l-.1.3Z" transform="translate(-20.2 -271.83)"/>
      <path class="b" d="M196.93,493.45c0-.11,0-.2.07-.3H167.2l-.1.3Z" transform="translate(-20.2 -271.83)"/>
      <polygon class="b" points="191.49 221.32 191.57 221.62 220.83 221.62 220.73 221.32 191.49 221.32"/>
      <path class="b" d="M195.61,498.52c0-.1,0-.19.08-.3H165.55l-.1.3Z" transform="translate(-20.2 -271.83)"/>
      <polygon class="b" points="192.83 226.39 192.91 226.69 222.5 226.69 222.4 226.39 192.83 226.39"/>
      <path class="b" d="M194.28,503.6c0-.1.05-.2.08-.3H163.9l-.1.3Z" transform="translate(-20.2 -271.83)"/>
      <polygon class="b" points="194.16 231.47 194.24 231.77 224.17 231.77 224.07 231.47 194.16 231.47"/>
      <path class="b" d="M193,508.68c0-.1.05-.2.08-.3H162.25l-.1.3Z" transform="translate(-20.2 -271.83)"/>
      <polygon class="b" points="195.49 236.55 195.57 236.85 225.84 236.85 225.74 236.55 195.49 236.55"/>
      <polygon class="b" points="140.4 241.63 140.3 241.93 227.51 241.93 227.41 241.63 140.4 241.63"/>
      <polygon class="b" points="138.75 246.71 138.65 247.01 229.19 247.01 229.09 246.71 138.75 246.71"/>
      <polygon class="b" points="137.1 251.78 137 252.08 230.85 252.08 230.76 251.78 137.1 251.78"/>
      <polygon class="b" points="135.45 256.86 135.35 257.16 232.53 257.16 232.43 256.86 135.45 256.86"/>
      <polygon class="b" points="133.8 261.94 133.7 262.24 234.2 262.24 234.1 261.94 133.8 261.94"/>
      <polygon class="b" points="203.25 267.01 203.33 267.32 235.87 267.32 235.77 267.01 203.25 267.01"/>
      <polygon class="b" points="132.15 267.01 132.05 267.32 164.97 267.32 165.05 267.01 132.15 267.01"/>
      <polygon class="b" points="204.59 272.09 204.66 272.39 237.54 272.39 237.44 272.09 204.59 272.09"/>
      <polygon class="b" points="163.59 272.39 163.68 272.09 130.5 272.09 130.4 272.39 163.59 272.39"/>
      <polygon class="b" points="162.22 277.47 162.3 277.17 128.85 277.17 128.75 277.47 162.22 277.47"/>
      <polygon class="b" points="205.92 277.17 206 277.47 239.21 277.47 239.11 277.17 205.92 277.17"/>
      <polygon class="b" points="160.85 282.55 160.93 282.25 127.2 282.25 127.1 282.55 160.85 282.55"/>
      <polygon class="b" points="240.78 282.25 207.25 282.25 207.33 282.55 240.88 282.55 240.78 282.25"/>
    </g>
    <g>
      <path class="b" d="M303.07,447.45c-.24.09-.47.2-.71.3h50c-.32-.11-.65-.2-1-.3Z" transform="translate(-20.2 -271.83)"/>
      <path class="b" d="M293.3,452.52l-.42.3h68l.12-.3Z" transform="translate(-20.2 -271.83)"/>
      <path class="b" d="M287,457.6l-.31.3h72.19l.12-.3Z" transform="translate(-20.2 -271.83)"/>
      <path class="b" d="M282.41,462.68l-.22.3h74.67l.12-.3Z" transform="translate(-20.2 -271.83)"/>
      <path class="b" d="M278.93,467.76c-.06.09-.11.2-.17.3h76.09l.11-.3Z" transform="translate(-20.2 -271.83)"/>
      <path class="b" d="M312.09,473.14c.12-.11.26-.2.38-.31H276.3c-.05.11-.1.21-.14.31Z" transform="translate(-20.2 -271.83)"/>
      <path class="b" d="M346.36,472.83l.71.31h5.76l.12-.31Z" transform="translate(-20.2 -271.83)"/>
      <path class="b" d="M274.23,477.91c0,.1-.06.2-.1.3h33.71c.06-.1.12-.2.19-.3Z" transform="translate(-20.2 -271.83)"/>
      <path class="b" d="M272.73,483c0,.1-.05.2-.08.3h32.64l.12-.3Z" transform="translate(-20.2 -271.83)"/>
      <path class="b" d="M271.64,488.07c0,.1,0,.2-.05.3h32.12l.06-.3Z" transform="translate(-20.2 -271.83)"/>
      <path class="b" d="M270.94,493.15l0,.3H302.8c0-.11,0-.2.05-.3Z" transform="translate(-20.2 -271.83)"/>
      <path class="b" d="M270.61,498.22c0,.1,0,.2,0,.3h31.78c0-.1,0-.2,0-.3Z" transform="translate(-20.2 -271.83)"/>
      <path class="b" d="M270.59,503.3c0,.1,0,.2,0,.3h31.75v-.3Z" transform="translate(-20.2 -271.83)"/>
      <path class="b" d="M270.76,508.38c0,.1,0,.2,0,.3h31.87l0-.3Z" transform="translate(-20.2 -271.83)"/>
      <path class="b" d="M271.28,513.46c0,.09,0,.2,0,.3h32.13c0-.1-.05-.2-.07-.3Z" transform="translate(-20.2 -271.83)"/>
      <path class="b" d="M272.12,518.53c0,.1,0,.21.05.31h32.65c0-.1-.07-.2-.11-.31Z" transform="translate(-20.2 -271.83)"/>
      <path class="b" d="M273.33,523.61c0,.1.05.2.08.3h33.82l-.18-.3Z" transform="translate(-20.2 -271.83)"/>
      <path class="b" d="M351.76,528.69l-.8.3h5.5v-.3Z" transform="translate(-20.2 -271.83)"/>
      <path class="b" d="M275.11,529h36.52l-.35-.3H275Z" transform="translate(-20.2 -271.83)"/>
      <path class="b" d="M331.93,533.77c-1.49.12-3,.2-4.5.2a35.56,35.56,0,0,1-3.65-.2H277.26l.15.3h79v-.3Z" transform="translate(-20.2 -271.83)"/>
      <path class="b" d="M280.26,538.84l.2.31h76v-.31Z" transform="translate(-20.2 -271.83)"/>
      <path class="b" d="M284.26,543.92l.08.1.22.2h71.9v-.3Z" transform="translate(-20.2 -271.83)"/>
      <path class="b" d="M290,549l.4.3h66V549Z" transform="translate(-20.2 -271.83)"/>
      <path class="b" d="M351.67,554.38l.9-.3H298.9l.69.3Z" transform="translate(-20.2 -271.83)"/>
    </g>
    <g>
      <polygon class="b" points="420.42 175.62 420.21 175.92 453.94 175.92 454.15 175.62 420.42 175.62"/>
      <rect class="b" x="358.57" y="175.62" width="31.07" height="0.3"/>
      <rect class="b" x="358.57" y="180.69" width="31.07" height="0.3"/>
      <polygon class="b" points="416.95 180.69 416.75 181 450.38 181 450.6 180.69 416.95 180.69"/>
      <polygon class="b" points="413.49 185.77 413.28 186.07 446.82 186.07 447.04 185.77 413.49 185.77"/>
      <rect class="b" x="358.57" y="185.77" width="31.07" height="0.3"/>
      <polygon class="b" points="410.02 190.85 409.82 191.15 443.26 191.15 443.48 190.85 410.02 190.85"/>
      <rect class="b" x="358.57" y="190.85" width="31.07" height="0.3"/>
      <polygon class="b" points="406.56 195.93 406.35 196.23 439.71 196.23 439.92 195.93 406.56 195.93"/>
      <rect class="b" x="358.57" y="195.93" width="31.07" height="0.3"/>
      <rect class="b" x="358.57" y="201.01" width="31.07" height="0.3"/>
      <polygon class="b" points="403.09 201 402.88 201.31 436.15 201.31 436.36 201 403.09 201"/>
      <rect class="b" x="358.57" y="206.08" width="31.07" height="0.3"/>
      <polygon class="b" points="399.63 206.08 399.42 206.38 432.59 206.38 432.8 206.08 399.63 206.08"/>
      <path class="b" d="M416.31,483c-.07.09-.15.21-.21.3h33.13l.21-.3Z" transform="translate(-20.2 -271.83)"/>
      <rect class="b" x="358.57" y="211.16" width="31.07" height="0.3"/>
      <path class="b" d="M413,488.07c-.07.1-.12.19-.19.3h32.91l.21-.3Z" transform="translate(-20.2 -271.83)"/>
      <rect class="b" x="358.57" y="216.24" width="31.07" height="0.3"/>
      <path class="b" d="M410,493.15c0,.06-.09.15-.12.22v-.22H378.77v.3h63.34l.21-.3Z" transform="translate(-20.2 -271.83)"/>
      <polygon class="b" points="358.57 226.39 358.57 226.69 422.87 226.69 422.7 226.39 358.57 226.39"/>
      <polygon class="b" points="358.57 231.47 358.57 231.77 425.71 231.77 425.54 231.47 358.57 231.47"/>
      <polygon class="b" points="358.57 236.55 358.57 236.85 428.54 236.85 428.38 236.55 358.57 236.55"/>
      <polygon class="b" points="358.57 241.63 358.57 241.93 431.38 241.93 431.21 241.63 358.57 241.63"/>
      <polygon class="b" points="358.57 246.71 358.57 247.01 391.46 247.01 391.96 246.71 358.57 246.71"/>
      <polygon class="b" points="400.91 246.71 401.06 247.01 434.22 247.01 434.05 246.71 400.91 246.71"/>
      <polygon class="b" points="403.52 251.78 403.68 252.08 437.06 252.08 436.89 251.78 403.52 251.78"/>
      <rect class="b" x="358.57" y="251.78" width="31.07" height="0.3"/>
      <polygon class="b" points="406.13 256.86 406.29 257.16 439.9 257.16 439.73 256.86 406.13 256.86"/>
      <rect class="b" x="358.57" y="256.86" width="31.07" height="0.3"/>
      <polygon class="b" points="408.75 261.94 408.9 262.24 442.74 262.24 442.57 261.94 408.75 261.94"/>
      <rect class="b" x="358.57" y="261.94" width="31.07" height="0.3"/>
      <polygon class="b" points="411.36 267.01 411.52 267.32 445.58 267.32 445.41 267.01 411.36 267.01"/>
      <rect class="b" x="358.57" y="267.02" width="31.07" height="0.3"/>
      <rect class="b" x="358.57" y="272.09" width="31.07" height="0.3"/>
      <polygon class="b" points="413.98 272.09 414.13 272.39 448.42 272.39 448.25 272.09 413.98 272.09"/>
      <rect class="b" x="358.57" y="277.17" width="31.07" height="0.3"/>
      <polygon class="b" points="416.59 277.17 416.75 277.47 451.25 277.47 451.09 277.17 416.59 277.17"/>
      <rect class="b" x="358.57" y="282.25" width="31.07" height="0.3"/>
      <polygon class="b" points="453.92 282.25 419.21 282.25 419.36 282.55 454.09 282.55 453.92 282.25"/>
    </g>
    <g>
      <path class="b" d="M504.28,447.45c-.25.09-.48.19-.72.3h50.13c-.33-.11-.66-.2-1-.3Z" transform="translate(-20.2 -271.83)"/>
      <path class="b" d="M495.39,452.52c-.13.1-.24.21-.36.3h68.15l.12-.3Z" transform="translate(-20.2 -271.83)"/>
      <path class="b" d="M490.3,457.6l-.22.3h71l.12-.3Z" transform="translate(-20.2 -271.83)"/>
      <path class="b" d="M487.15,462.68c0,.1-.07.2-.12.3h72l.13-.3Z" transform="translate(-20.2 -271.83)"/>
      <path class="b" d="M527.89,467.76q1.86.06,3.84.3H557l.12-.3Z" transform="translate(-20.2 -271.83)"/>
      <path class="b" d="M485.39,467.76c0,.1-.05.2-.08.3h37a23,23,0,0,1,3.07-.3Z" transform="translate(-20.2 -271.83)"/>
      <path class="b" d="M515.31,473.14c0-.11.08-.2.12-.31H484.51c0,.1,0,.21,0,.31Z" transform="translate(-20.2 -271.83)"/>
      <path class="b" d="M549.28,472.83l.78.31H555l.13-.31Z" transform="translate(-20.2 -271.83)"/>
      <path class="b" d="M484.41,477.91c0,.1,0,.2,0,.3H516c-.07-.1-.13-.2-.19-.3Z" transform="translate(-20.2 -271.83)"/>
      <path class="b" d="M484.88,483c0,.1,0,.2,0,.3h37.71l-.55-.3Z" transform="translate(-20.2 -271.83)"/>
      <path class="b" d="M486.09,488.07c0,.1.07.2.11.3h46.88l-.65-.3Z" transform="translate(-20.2 -271.83)"/>
      <path class="b" d="M488.35,493.15c.06.09.1.2.16.3h55.33l-.59-.3Z" transform="translate(-20.2 -271.83)"/>
      <path class="b" d="M492.09,498.22c.09.1.17.21.26.3h59.56l-.42-.3Z" transform="translate(-20.2 -271.83)"/>
      <path class="b" d="M497.88,503.3l.42.3h59l-.25-.3Z" transform="translate(-20.2 -271.83)"/>
      <path class="b" d="M506.52,508.38l.59.3h53.53l-.14-.3Z" transform="translate(-20.2 -271.83)"/>
      <path class="b" d="M517.54,513.46l.66.3h44.32c0-.1,0-.21-.08-.3Z" transform="translate(-20.2 -271.83)"/>
      <path class="b" d="M527.78,518.53c.16.1.31.21.45.31h35.23l0-.31Z" transform="translate(-20.2 -271.83)"/>
      <path class="b" d="M532.47,523.61c0,.1,0,.21,0,.3h31.14c0-.1,0-.2,0-.3Z" transform="translate(-20.2 -271.83)"/>
      <path class="b" d="M493.55,529l-.87-.3h-9.12v.3Z" transform="translate(-20.2 -271.83)"/>
      <path class="b" d="M532.15,528.69c0,.1-.07.2-.12.3H563.2c0-.1,0-.2.07-.3Z" transform="translate(-20.2 -271.83)"/>
      <path class="b" d="M517.93,534.07q-2.16-.06-4.41-.3h-30v.3Z" transform="translate(-20.2 -271.83)"/>
      <path class="b" d="M524.05,533.77a28.54,28.54,0,0,1-3.26.3H562l.12-.3Z" transform="translate(-20.2 -271.83)"/>
      <path class="b" d="M483.56,538.84v.31h76.17c.06-.11.12-.2.17-.31Z" transform="translate(-20.2 -271.83)"/>
      <path class="b" d="M483.56,543.92v.3h72.75l.24-.3Z" transform="translate(-20.2 -271.83)"/>
      <path class="b" d="M483.56,549v.3H551.1c.13-.1.29-.19.43-.3Z" transform="translate(-20.2 -271.83)"/>
      <path class="b" d="M489.25,554.08l.81.3h52.36c.1,0,.21-.07.31-.12s.23-.13.36-.18Z" transform="translate(-20.2 -271.83)"/>
    </g>
  </g>
  <polygon class="d" points="544.35 167.57 11.53 171.5 7.63 167.57 7.63 159.09 544.35 159.09 547.65 163.01 544.35 167.57"/>
  <g class="e">
    <g>
      <line class="a" y1="102.25" x2="705.39" y2="102.25"/>
      <line class="f" y1="109.75" x2="705.39" y2="109.75"/>
      <line class="f" y1="110.42" x2="705.39" y2="110.42"/>
      <line class="f" y1="111.1" x2="705.39" y2="111.1"/>
      <line class="f" y1="111.77" x2="705.39" y2="111.77"/>
      <line class="f" y1="112.45" x2="705.39" y2="112.45"/>
      <line class="f" y1="113.13" x2="705.39" y2="113.13"/>
      <line class="f" y1="113.8" x2="705.39" y2="113.8"/>
      <line class="f" y1="114.48" x2="705.39" y2="114.48"/>
      <line class="f" y1="115.15" x2="705.39" y2="115.15"/>
      <line class="f" y1="115.83" x2="705.39" y2="115.83"/>
      <line class="f" y1="116.5" x2="705.39" y2="116.5"/>
      <line class="f" y1="117.18" x2="705.39" y2="117.18"/>
      <line class="f" y1="117.85" x2="705.39" y2="117.85"/>
      <line class="f" y1="118.53" x2="705.39" y2="118.53"/>
      <line class="f" y1="119.21" x2="705.39" y2="119.21"/>
      <line class="f" y1="119.88" x2="705.39" y2="119.88"/>
      <line class="f" y1="120.56" x2="705.39" y2="120.56"/>
      <line class="f" y1="121.23" x2="705.39" y2="121.23"/>
      <line class="f" y1="121.91" x2="705.39" y2="121.91"/>
      <line class="f" y1="122.58" x2="705.39" y2="122.58"/>
      <line class="f" y1="123.26" x2="705.39" y2="123.26"/>
      <line class="f" y1="123.93" x2="705.39" y2="123.93"/>
      <line class="f" y1="124.61" x2="705.39" y2="124.61"/>
      <line class="f" y1="125.29" x2="705.39" y2="125.29"/>
      <line class="f" y1="125.96" x2="705.39" y2="125.96"/>
      <line class="f" y1="126.64" x2="705.39" y2="126.64"/>
      <line class="f" y1="127.31" x2="705.39" y2="127.31"/>
      <line class="f" y1="127.99" x2="705.39" y2="127.99"/>
      <line class="f" y1="128.66" x2="705.39" y2="128.66"/>
      <line class="f" y1="129.34" x2="705.39" y2="129.34"/>
      <line class="f" y1="130.01" x2="705.39" y2="130.01"/>
      <line class="f" y1="130.69" x2="705.39" y2="130.69"/>
      <line class="f" y1="131.37" x2="705.39" y2="131.37"/>
      <line class="f" y1="132.04" x2="705.39" y2="132.04"/>
      <line class="f" y1="132.72" x2="705.39" y2="132.72"/>
      <line class="f" y1="133.39" x2="705.39" y2="133.39"/>
      <line class="f" y1="134.07" x2="705.39" y2="134.07"/>
      <line class="f" y1="134.74" x2="705.39" y2="134.74"/>
      <line class="f" y1="135.42" x2="705.39" y2="135.42"/>
      <line class="f" y1="136.1" x2="705.39" y2="136.1"/>
      <line class="f" y1="136.77" x2="705.39" y2="136.77"/>
      <line class="f" y1="137.45" x2="705.39" y2="137.45"/>
      <line class="f" y1="138.12" x2="705.39" y2="138.12"/>
      <line class="f" y1="138.8" x2="705.39" y2="138.8"/>
      <line class="f" y1="139.47" x2="705.39" y2="139.47"/>
      <line class="f" y1="140.15" x2="705.39" y2="140.15"/>
      <line class="f" y1="140.82" x2="705.39" y2="140.82"/>
      <line class="f" y1="141.5" x2="705.39" y2="141.5"/>
      <line class="f" y1="142.18" x2="705.39" y2="142.18"/>
      <line class="f" y1="142.85" x2="705.39" y2="142.85"/>
      <line class="f" y1="143.53" x2="705.39" y2="143.53"/>
      <line class="f" y1="144.2" x2="705.39" y2="144.2"/>
      <line class="f" y1="144.88" x2="705.39" y2="144.88"/>
      <line class="f" y1="145.55" x2="705.39" y2="145.55"/>
      <line class="f" y1="146.23" x2="705.39" y2="146.23"/>
      <line class="f" y1="146.9" x2="705.39" y2="146.9"/>
      <line class="f" y1="147.58" x2="705.39" y2="147.58"/>
      <line class="f" y1="148.26" x2="705.39" y2="148.26"/>
      <line class="f" y1="148.93" x2="705.39" y2="148.93"/>
      <line class="f" y1="149.61" x2="705.39" y2="149.61"/>
      <line class="f" y1="150.28" x2="705.39" y2="150.28"/>
      <line class="f" y1="150.96" x2="705.39" y2="150.96"/>
      <line class="f" y1="151.63" x2="705.39" y2="151.63"/>
      <line class="f" y1="152.31" x2="705.39" y2="152.31"/>
      <line class="f" y1="152.98" x2="705.39" y2="152.98"/>
      <line class="f" y1="153.66" x2="705.39" y2="153.66"/>
      <line class="f" y1="154.34" x2="705.39" y2="154.34"/>
      <line class="f" y1="155.01" x2="705.39" y2="155.01"/>
      <line class="f" y1="155.69" x2="705.39" y2="155.69"/>
      <line class="f" y1="156.36" x2="705.39" y2="156.36"/>
      <line class="f" y1="157.04" x2="705.39" y2="157.04"/>
      <line class="f" y1="157.71" x2="705.39" y2="157.71"/>
      <line class="f" y1="158.39" x2="705.39" y2="158.39"/>
      <line class="f" y1="159.07" x2="705.39" y2="159.07"/>
      <line class="f" y1="159.74" x2="705.39" y2="159.74"/>
      <line class="f" y1="160.42" x2="705.39" y2="160.42"/>
      <line class="f" y1="161.09" x2="705.39" y2="161.09"/>
      <line class="f" y1="161.77" x2="705.39" y2="161.77"/>
      <line class="f" y1="162.44" x2="705.39" y2="162.44"/>
    </g>
  </g>
  <rect class="g" x="11.53" y="163.01" width="536.12" height="8.49"/>
  <g>
    <g>
      <path class="h" d="M64.73,432l-29,3-3-3V378.06h32l3,3-3,8.67H47.28v8.49H63.44l3,3-3,8.68H47.28v10.18H64.73l3,3Z" transform="translate(-20.2 -271.83)"/>
      <path class="h" d="M97.68,432l-11-38.85h-.33c.51,6.61.77,11.76.77,15.42V432l-9.89,3-3-3V378.06H93.59l3,3,8.23,35.28h.3l11-38.3h19.44l3,3-3,50.92-10.37,3-3-3V408.35c0-1.23,0-2.6,0-4.1s.21-5.17.5-11h-.33L111.56,432l-10.86,3Z" transform="translate(-20.2 -271.83)"/>
      <path class="h" d="M186.39,395.21q0,9-5.34,14t-15.14,4.93h-4.1V432l-11.55,3-3-3V378.06h18.68q10.22,0,15.35,4.46c2.86,2.49,7.36,7.57,7.82,11.81C189.18,395.17,186.39,394.32,186.39,395.21Zm-24.58,7h2.66a7.25,7.25,0,0,0,5.22-1.84,6.71,6.71,0,0,0,1.94-5.09q0-5.46-6.06-5.46h-3.76Z" transform="translate(-20.2 -271.83)"/>
      <path class="h" d="M245.46,405q0,13.2-6.68,20.07t-19.55,6.87q-12.71,0-19.47-6.9T193,404.88q0-13,6.74-19.94t19.57-6.88q12.87,0,19.52,6.83T245.46,405Zm-37.12,0q0,15.18,10.89,15.17c3.69,0,6.42-1.23,8.21-3.68s2.67-6.29,2.67-11.49-.9-9.07-2.71-11.56-4.51-3.74-8.1-3.74Q208.34,389.65,208.34,405Z" transform="translate(-20.2 -271.83)"/>
      <path class="h" d="M313.46,432l-14.2,3-3-3-5.16-23.5c-.25-1-.64-2.94-1.17-5.87s-.91-5.37-1.16-7.34c-.2,1.6-.51,3.58-1,6s-.88,4.55-1.31,6.55-2.22,10.06-5.37,24.2l-14.2,3-3-3-13.35-53.94h14l3,3,2.85,24q2,9,2.73,14.28c.32-2.51.89-5.91,1.72-10.22s1.59-7.87,2.3-10.7l4.76-20.4h13.51l3,3,1.59,17.38q1.19,4.91,2.4,11.33t1.62,9.59q.48-4.1,2.62-14.2l6-27.12h14.06l3,3Z" transform="translate(-20.2 -271.83)"/>
      <path class="h" d="M365.75,432l-29,3-3-3V378.06h32l3,3-3,8.67H348.3v8.49h16.16l3,3-3,8.68H348.3v10.18h17.45l3,3Z" transform="translate(-20.2 -271.83)"/>
      <path class="h" d="M389.77,412.37V432l-11.55,3-3-3V378.06h17.67c14.66,0,24.92,6.3,25,18.26,0,6.24-6.06,8.76-12.16,12.18L421.43,432l-13.51,3-3-3-11.44-19.63Zm0-11h2.73q7.63,0,7.64-6.75,0-5.57-7.49-5.57h-2.88Z" transform="translate(-20.2 -271.83)"/>
      <path class="h" d="M426.33,432V378.06H441l3,3L441,432l-11.63,3Z" transform="translate(-20.2 -271.83)"/>
      <path class="h" d="M504,432l-16.08,3-3-3-19.7-38h-.33c.46,6,.7,10.54.7,13.68V432l-9.9,3-3-3V378.06h19l3,3,16.61,34.47h.23q-.53-8.16-.52-13.1V378.06h13l3,3Z" transform="translate(-20.2 -271.83)"/>
      <path class="h" d="M537.33,400.55h23.28l3,3-3,25.25A65.8,65.8,0,0,1,539.76,432q-12.46,0-19.28-7t-6.81-20.05q0-12.69,7.46-19.76T542,378.06a47.55,47.55,0,0,1,9.61.93,41,41,0,0,1,7.88,2.37l3,3-7.63,8.12a29.28,29.28,0,0,0-12.81-2.79q-6.37,0-9.87,4t-3.48,11.53q0,7.36,3.15,11.21t9.1,3.86a27.11,27.11,0,0,0,6-.61v-8.22l-6.6,3-3-3Z" transform="translate(-20.2 -271.83)"/>
    </g>
    <g>
      <path class="i" d="M189.41,398.24q0,9-5.34,14t-15.14,4.93h-4.1V435H150.26V381.08h18.67q10.22,0,15.35,4.46T189.41,398.24Zm-24.58,7h2.66a7.25,7.25,0,0,0,5.22-1.85,6.69,6.69,0,0,0,1.94-5.09q0-5.46-6.05-5.46h-3.77Z" transform="translate(-20.2 -271.83)"/>
      <path class="i" d="M248.48,408q0,13.25-6.68,20.15T222.25,435q-12.7,0-19.47-6.94T196,407.91q0-13.11,6.74-20T222.32,381q12.88,0,19.52,6.86T248.48,408Zm-37.12,0q0,15.22,10.89,15.23c3.69,0,6.42-1.24,8.21-3.7s2.67-6.31,2.67-11.53-.9-9.12-2.71-11.62-4.51-3.76-8.1-3.76Q211.37,392.6,211.36,408Z" transform="translate(-20.2 -271.83)"/>
      <path class="i" d="M316.49,435H299.26l-5.17-23.51c-.25-1-.63-2.94-1.16-5.87s-.92-5.37-1.17-7.34q-.28,2.4-.95,6c-.45,2.37-.88,4.56-1.31,6.55s-2.23,10.06-5.37,24.21H266.9l-13.36-53.95h14l5.87,27q2,9,2.73,14.29.48-3.77,1.72-10.23c.83-4.3,1.59-7.87,2.31-10.7l4.76-20.4h13.5l4.61,20.4q1.19,4.92,2.4,11.33t1.62,9.6q.48-4.1,2.63-14.21l6-27.12h14.06Z" transform="translate(-20.2 -271.83)"/>
      <path class="i" d="M368.77,435h-32V381.08h32v11.69H351.32v8.49h16.16V413H351.32v10.18h17.45Z" transform="translate(-20.2 -271.83)"/>
      <path class="i" d="M67.75,435h-32V381.08h32v11.69H50.3v8.49H66.46V413H50.3v10.18H67.75Z" transform="translate(-20.2 -271.83)"/>
      <path class="i" d="M392.79,415.4V435H378.22V381.08h17.67q22,0,22,15.94,0,9.38-9.15,14.5L424.45,435H407.92L396.48,415.4Zm0-11h2.73c5.09,0,7.64-2.24,7.64-6.75q0-5.56-7.49-5.57h-2.88Z" transform="translate(-20.2 -271.83)"/>
      <path class="i" d="M429.36,435V381.08H444V435Z" transform="translate(-20.2 -271.83)"/>
      <path class="i" d="M507,435H487.92l-19.71-38h-.33q.71,9,.7,13.69V435H455.66V381.08h19l19.63,37.49h.23q-.53-8.16-.52-13.1V381.08h13Z" transform="translate(-20.2 -271.83)"/>
      <path class="i" d="M540.35,403.56h23.28v28.3A65.49,65.49,0,0,1,542.79,435q-12.48,0-19.29-7t-6.8-20.08q0-12.72,7.45-19.79T545,381a47,47,0,0,1,9.61.94,41.09,41.09,0,0,1,7.87,2.37l-4.61,11.13a29.1,29.1,0,0,0-12.8-2.8q-6.39,0-9.87,4t-3.49,11.55q0,7.37,3.15,11.22t9.1,3.86a27.27,27.27,0,0,0,6-.61v-8.22h-9.63Z" transform="translate(-20.2 -271.83)"/>
      <path class="i" d="M100.7,435l-11-38.86h-.33q.78,9.93.78,15.42V435H77.2V381.08H96.61l11.25,38.3h.3l11-38.3h19.45V435h-13.4V411.37c0-1.23,0-2.59.06-4.09s.2-5.18.5-11h-.34L114.58,435Z" transform="translate(-20.2 -271.83)"/>
    </g>
    <g>
      <path class="h" d="M150.26,385.81h34.26c-.09-.08-.15-.19-.24-.27l-.05,0h-34Z" transform="translate(-20.2 -271.83)"/>
      <path class="h" d="M150.26,390.47v.3H188c0-.1-.12-.19-.16-.3Z" transform="translate(-20.2 -271.83)"/>
      <path class="h" d="M174,395.44a2.8,2.8,0,0,1,.15.3h15c0-.1,0-.2,0-.3Z" transform="translate(-20.2 -271.83)"/>
      <rect class="h" x="130.06" y="123.61" width="14.58" height="0.3"/>
      <path class="h" d="M174.38,400.4c0,.11,0,.21-.08.31h14.92c0-.1,0-.21,0-.31Z" transform="translate(-20.2 -271.83)"/>
      <rect class="h" x="130.06" y="128.58" width="14.58" height="0.3"/>
      <path class="h" d="M150.26,405.37v.3h38c0-.09.05-.2.08-.3Z" transform="translate(-20.2 -271.83)"/>
      <path class="h" d="M150.26,410.34v.3h35.16l.25-.3Z" transform="translate(-20.2 -271.83)"/>
      <path class="h" d="M150.26,415.31v.3h28c.24-.09.46-.21.69-.3Z" transform="translate(-20.2 -271.83)"/>
      <rect class="h" x="130.06" y="148.44" width="14.58" height="0.3"/>
      <rect class="h" x="130.06" y="153.41" width="14.58" height="0.3"/>
      <rect class="h" x="130.06" y="158.38" width="14.58" height="0.3"/>
    </g>
    <g>
      <path class="h" d="M205.59,385.51a4,4,0,0,0-.42.3H239.5c-.13-.11-.28-.2-.42-.3Z" transform="translate(-20.2 -271.83)"/>
      <path class="h" d="M200.65,390.47l-.2.3h43.7l-.2-.3Z" transform="translate(-20.2 -271.83)"/>
      <path class="h" d="M229.56,395.44l.28.3h16.77l-.12-.3Z" transform="translate(-20.2 -271.83)"/>
      <path class="h" d="M198.05,395.44c0,.1-.08.2-.11.3h16.81l.28-.3Z" transform="translate(-20.2 -271.83)"/>
      <path class="h" d="M212.22,400.71c0-.11.07-.2.1-.31H196.68c0,.11,0,.2-.05.31Z" transform="translate(-20.2 -271.83)"/>
      <path class="h" d="M232.22,400.4c0,.11.07.2.1.31h15.56l-.06-.31Z" transform="translate(-20.2 -271.83)"/>
      <path class="h" d="M211.47,405.67c0-.09,0-.2,0-.3H196.1c0,.1,0,.2,0,.3Z" transform="translate(-20.2 -271.83)"/>
      <path class="h" d="M233,405.37c0,.1,0,.21,0,.3h15.38c0-.1,0-.2,0-.3Z" transform="translate(-20.2 -271.83)"/>
      <path class="h" d="M233,410.34c0,.1,0,.2,0,.3H248.4c0-.1,0-.2,0-.3Z" transform="translate(-20.2 -271.83)"/>
      <path class="h" d="M211.49,410.64c0-.1,0-.2,0-.3H196.09c0,.1,0,.2,0,.3Z" transform="translate(-20.2 -271.83)"/>
      <path class="h" d="M212.36,415.61c0-.11-.07-.2-.1-.3H196.65l.06.3Z" transform="translate(-20.2 -271.83)"/>
      <path class="h" d="M232.3,415.31c0,.1-.07.19-.1.3h15.61c0-.1,0-.2.05-.3Z" transform="translate(-20.2 -271.83)"/>
      <path class="h" d="M215.16,420.57c-.09-.09-.18-.2-.27-.3H198c0,.1.08.2.12.3Z" transform="translate(-20.2 -271.83)"/>
      <path class="h" d="M229.74,420.27a4,4,0,0,1-.28.3h17l.12-.3Z" transform="translate(-20.2 -271.83)"/>
      <path class="h" d="M200.5,425.24l.21.3h43.17l.2-.3Z" transform="translate(-20.2 -271.83)"/>
      <path class="h" d="M239,430.51l.42-.3H205.25l.42.3Z" transform="translate(-20.2 -271.83)"/>
    </g>
    <g>
      <polygon class="h" points="234.51 113.98 248.42 113.98 248.35 113.68 234.43 113.68 234.51 113.98"/>
      <polygon class="h" points="263.74 113.68 263.67 113.98 279.35 113.98 279.28 113.68 263.74 113.68"/>
      <polygon class="h" points="294.53 113.68 294.47 113.98 308.4 113.98 308.48 113.68 294.53 113.68"/>
      <polygon class="h" points="262.58 118.64 262.51 118.94 280.47 118.94 280.4 118.64 262.58 118.64"/>
      <polygon class="h" points="293.44 118.64 293.37 118.94 307.18 118.94 307.26 118.64 293.44 118.64"/>
      <polygon class="h" points="249.5 118.94 249.43 118.64 235.66 118.64 235.74 118.94 249.5 118.94"/>
      <polygon class="h" points="292.35 123.61 292.28 123.91 305.96 123.91 306.03 123.61 292.35 123.61"/>
      <polygon class="h" points="250.57 123.91 250.51 123.61 236.89 123.61 236.97 123.91 250.57 123.91"/>
      <polygon class="h" points="261.43 123.61 261.36 123.91 281.59 123.91 281.53 123.61 261.43 123.61"/>
      <polygon class="h" points="291.25 128.57 291.19 128.88 304.74 128.88 304.81 128.57 291.25 128.57"/>
      <polygon class="h" points="251.65 128.88 251.59 128.57 238.12 128.57 238.2 128.88 251.65 128.88"/>
      <path class="h" d="M280.47,400.4l-.07.31h11c0-.11,0-.2,0-.31Z" transform="translate(-20.2 -271.83)"/>
      <path class="h" d="M292.05,400.4c0,.1,0,.21.05.31h10.82l-.07-.31Z" transform="translate(-20.2 -271.83)"/>
      <polygon class="h" points="290.16 133.54 290.09 133.84 303.51 133.84 303.59 133.54 290.16 133.54"/>
      <path class="h" d="M292.88,405.37c0,.1,0,.19.05.28v0H304l-.06-.3Z" transform="translate(-20.2 -271.83)"/>
      <polygon class="h" points="252.73 133.84 252.66 133.54 239.35 133.54 239.43 133.84 252.73 133.84"/>
      <path class="h" d="M290.53,405.67l.06-.3H279.31c0,.1-.05.2-.07.3Z" transform="translate(-20.2 -271.83)"/>
      <path class="h" d="M274,410.64l-.07-.3H260.78l.08.3Z" transform="translate(-20.2 -271.83)"/>
      <path class="h" d="M309.29,410.34c0,.1-.05.2-.07.3h13.27l.08-.3Z" transform="translate(-20.2 -271.83)"/>
      <path class="h" d="M289.53,410.64c0-.1.05-.2.07-.3H278.27l-.06.3Z" transform="translate(-20.2 -271.83)"/>
      <path class="h" d="M293.83,410.34l.06.3h11.18l-.06-.3Z" transform="translate(-20.2 -271.83)"/>
      <path class="h" d="M275,415.61c0-.1,0-.21-.06-.3H262l.08.3Z" transform="translate(-20.2 -271.83)"/>
      <path class="h" d="M308.29,415.31c0,.1,0,.2-.05.3h13l.07-.3Z" transform="translate(-20.2 -271.83)"/>
      <path class="h" d="M288.44,415.61c0-.12,0-.19.07-.3H277.33l-.06.3Z" transform="translate(-20.2 -271.83)"/>
      <path class="h" d="M294.92,415.31l.07.3h11c0-.1,0-.21-.06-.3Z" transform="translate(-20.2 -271.83)"/>
      <path class="h" d="M306.8,420.27H296l.07.3h10.77C306.84,420.48,306.82,420.37,306.8,420.27Z" transform="translate(-20.2 -271.83)"/>
      <path class="h" d="M287.34,420.57c0-.1,0-.2.07-.3H276.49a2.72,2.72,0,0,1,0,.3Z" transform="translate(-20.2 -271.83)"/>
      <path class="h" d="M275.91,420.57c0-.1,0-.19-.05-.3H263.24l.08.3Z" transform="translate(-20.2 -271.83)"/>
      <path class="h" d="M307.41,420.27c0,.11,0,.2,0,.3h12.68l.07-.3Z" transform="translate(-20.2 -271.83)"/>
      <path class="h" d="M286.24,425.54c0-.11,0-.19.06-.3H264.47l.08.3Z" transform="translate(-20.2 -271.83)"/>
      <polygon class="h" points="276.9 153.41 276.97 153.71 298.62 153.71 298.69 153.41 276.9 153.41"/>
      <path class="h" d="M285.13,430.51c0-.1.05-.21.07-.3H265.7l.08.3Z" transform="translate(-20.2 -271.83)"/>
      <polygon class="h" points="297.47 158.38 278 158.38 278.06 158.68 297.4 158.68 297.47 158.38"/>
    </g>
    <g>
      <rect class="h" x="316.54" y="113.68" width="32.03" height="0.3"/>
      <rect class="h" x="316.54" y="118.64" width="32.03" height="0.3"/>
      <rect class="h" x="316.54" y="123.61" width="14.57" height="0.3"/>
      <rect class="h" x="316.54" y="128.58" width="14.57" height="0.3"/>
      <rect class="h" x="316.54" y="133.54" width="30.73" height="0.3"/>
      <rect class="h" x="316.54" y="138.51" width="30.73" height="0.3"/>
      <rect class="h" x="316.54" y="143.48" width="14.57" height="0.3"/>
      <rect class="h" x="316.54" y="148.44" width="14.57" height="0.3"/>
      <rect class="h" x="316.54" y="153.41" width="32.03" height="0.3"/>
      <rect class="h" x="316.54" y="158.38" width="32.03" height="0.3"/>
    </g>
    <g>
      <path class="h" d="M378.22,385.51v.3h35.07a3.47,3.47,0,0,0-.37-.3Z" transform="translate(-20.2 -271.83)"/>
      <path class="h" d="M378.22,390.47v.3h38.57l-.12-.3Z" transform="translate(-20.2 -271.83)"/>
      <path class="h" d="M402.75,395.44c0,.09.06.2.1.3h15c0-.1,0-.2,0-.3Z" transform="translate(-20.2 -271.83)"/>
      <rect class="h" x="358.02" y="123.61" width="14.57" height="0.3"/>
      <path class="h" d="M402.75,400.4c0,.1-.06.21-.1.31h14.81l.06-.31Z" transform="translate(-20.2 -271.83)"/>
      <rect class="h" x="358.02" y="128.58" width="14.57" height="0.3"/>
      <path class="h" d="M378.22,405.37v.3h37.12c.07-.1.16-.19.23-.3Z" transform="translate(-20.2 -271.83)"/>
      <path class="h" d="M378.22,410.34v.3h31.91l.48-.3Z" transform="translate(-20.2 -271.83)"/>
      <polygon class="h" points="358.02 143.48 358.02 143.78 372.59 143.78 372.59 143.57 376.28 143.57 376.4 143.78 391.26 143.78 391.06 143.48 358.02 143.48"/>
      <rect class="h" x="358.02" y="148.44" width="14.57" height="0.3"/>
      <polygon class="h" points="379.12 148.44 379.3 148.74 394.59 148.74 394.38 148.44 379.12 148.44"/>
      <polygon class="h" points="382.02 153.41 382.19 153.71 397.91 153.71 397.71 153.41 382.02 153.41"/>
      <rect class="h" x="358.02" y="153.41" width="14.57" height="0.3"/>
      <rect class="h" x="358.02" y="158.38" width="14.57" height="0.3"/>
      <polygon class="h" points="401.03 158.38 384.91 158.38 385.09 158.68 401.23 158.68 401.03 158.38"/>
    </g>
    <g>
      <rect class="h" x="409.16" y="113.68" width="14.65" height="0.3"/>
      <rect class="h" x="409.16" y="118.64" width="14.65" height="0.3"/>
      <rect class="h" x="409.16" y="123.61" width="14.65" height="0.3"/>
      <rect class="h" x="409.16" y="128.58" width="14.65" height="0.3"/>
      <rect class="h" x="409.16" y="133.54" width="14.65" height="0.3"/>
      <rect class="h" x="409.16" y="138.51" width="14.65" height="0.3"/>
      <rect class="h" x="409.16" y="143.48" width="14.65" height="0.3"/>
      <rect class="h" x="409.16" y="148.44" width="14.65" height="0.3"/>
      <rect class="h" x="409.16" y="153.41" width="14.65" height="0.3"/>
      <rect class="h" x="409.16" y="158.38" width="14.65" height="0.3"/>
    </g>
    <g>
      <rect class="h" x="473.84" y="113.68" width="12.99" height="0.3"/>
      <polygon class="h" points="435.46 113.68 435.46 113.98 456.98 113.98 456.82 113.68 435.46 113.68"/>
      <rect class="h" x="473.84" y="118.64" width="12.99" height="0.3"/>
      <polygon class="h" points="459.58 118.94 459.42 118.64 435.46 118.64 435.46 118.94 459.58 118.94"/>
      <rect class="h" x="473.84" y="123.61" width="12.99" height="0.3"/>
      <polygon class="h" points="462.18 123.91 462.02 123.61 435.46 123.61 435.46 123.91 462.18 123.91"/>
      <polygon class="h" points="449.76 128.57 449.92 128.88 464.78 128.88 464.62 128.57 449.76 128.57"/>
      <path class="h" d="M468.15,400.71c0-.1,0-.21,0-.31H455.66v.31Z" transform="translate(-20.2 -271.83)"/>
      <rect class="h" x="473.84" y="128.58" width="12.99" height="0.3"/>
      <polygon class="h" points="452.34 133.54 452.5 133.84 467.38 133.84 467.22 133.54 452.34 133.54"/>
      <path class="h" d="M494,405.37v.3h13v-.3Z" transform="translate(-20.2 -271.83)"/>
      <path class="h" d="M468.44,405.67c0-.1,0-.19,0-.3H455.66v.3Z" transform="translate(-20.2 -271.83)"/>
      <path class="h" d="M468.58,410.64v-.3H455.66v.3Z" transform="translate(-20.2 -271.83)"/>
      <polygon class="h" points="454.92 138.51 455.07 138.81 469.98 138.81 469.82 138.51 454.92 138.51"/>
      <path class="h" d="M494.14,410.34c0,.1,0,.2,0,.3H507v-.3Z" transform="translate(-20.2 -271.83)"/>
      <polygon class="h" points="472.58 143.78 472.42 143.48 457.49 143.48 457.65 143.78 472.58 143.78"/>
      <rect class="h" x="435.46" y="143.48" width="12.92" height="0.3"/>
      <path class="h" d="M494.37,415.31c0,.09,0,.2,0,.3H507v-.3Z" transform="translate(-20.2 -271.83)"/>
      <rect class="h" x="435.46" y="148.44" width="12.92" height="0.3"/>
      <polygon class="h" points="460.07 148.44 460.22 148.74 486.83 148.74 486.83 148.44 460.07 148.44"/>
      <polygon class="h" points="462.64 153.41 462.8 153.71 486.83 153.71 486.83 153.41 462.64 153.41"/>
      <rect class="h" x="435.46" y="153.41" width="12.92" height="0.3"/>
      <polygon class="h" points="486.83 158.38 465.22 158.38 465.37 158.68 486.83 158.68 486.83 158.38"/>
      <rect class="h" x="435.46" y="158.38" width="12.92" height="0.3"/>
    </g>
    <g>
      <path class="h" d="M557.81,395.44l.1,0,0,0Z" transform="translate(-20.2 -271.83)"/>
      <path class="h" d="M519.13,395.44l-.11.3H536.3c.11-.1.22-.21.33-.3Z" transform="translate(-20.2 -271.83)"/>
      <path class="h" d="M517.55,400.4c0,.1,0,.21-.07.31H533l.12-.31Z" transform="translate(-20.2 -271.83)"/>
      <rect class="h" x="520.15" y="133.54" width="23.28" height="0.3"/>
      <path class="h" d="M516.86,405.37c0,.1,0,.2,0,.3h15.07c0-.09,0-.2,0-.3Z" transform="translate(-20.2 -271.83)"/>
      <rect class="h" x="520.15" y="138.51" width="23.28" height="0.3"/>
      <path class="h" d="M531.89,410.64c0-.1,0-.2,0-.3H516.78c0,.1,0,.2,0,.3Z" transform="translate(-20.2 -271.83)"/>
      <rect class="h" x="529.78" y="143.48" width="13.66" height="0.3"/>
      <path class="h" d="M532.86,415.61c0-.11-.08-.2-.11-.3H517.36l.06.3Z" transform="translate(-20.2 -271.83)"/>
      <path class="h" d="M536,420.57c-.11-.09-.21-.2-.32-.3h-17c0,.1.08.2.12.3Z" transform="translate(-20.2 -271.83)"/>
      <rect class="h" x="529.78" y="148.44" width="13.66" height="0.3"/>
      <path class="h" d="M521.3,425.24l.21.3h42.12v-.3Z" transform="translate(-20.2 -271.83)"/>
      <path class="h" d="M563.63,430.51v-.3H526.08l.41.3Z" transform="translate(-20.2 -271.83)"/>
    </g>
    <g>
      <rect class="h" x="15.52" y="113.68" width="32.03" height="0.3"/>
      <rect class="h" x="15.52" y="118.64" width="32.03" height="0.3"/>
      <rect class="h" x="15.52" y="123.61" width="14.58" height="0.3"/>
      <rect class="h" x="15.52" y="128.58" width="14.58" height="0.3"/>
      <rect class="h" x="15.52" y="133.54" width="30.74" height="0.3"/>
      <rect class="h" x="15.52" y="138.51" width="30.74" height="0.3"/>
      <rect class="h" x="15.52" y="143.48" width="14.58" height="0.3"/>
      <rect class="h" x="15.52" y="148.44" width="14.58" height="0.3"/>
      <rect class="h" x="15.52" y="153.41" width="32.03" height="0.3"/>
      <rect class="h" x="15.52" y="158.38" width="32.03" height="0.3"/>
    </g>
    <g>
      <polygon class="h" points="97.72 113.68 97.63 113.98 118.44 113.98 118.44 113.68 97.72 113.68"/>
      <polygon class="h" points="57 113.68 57 113.98 77.8 113.98 77.71 113.68 57 113.68"/>
      <polygon class="h" points="79.26 118.94 79.17 118.64 57 118.64 57 118.94 79.26 118.94"/>
      <polygon class="h" points="96.28 118.64 96.2 118.94 118.44 118.94 118.44 118.64 96.28 118.64"/>
      <polygon class="h" points="94.85 123.61 94.77 123.91 118.44 123.91 118.44 123.61 94.85 123.61"/>
      <polygon class="h" points="80.72 123.91 80.63 123.61 57 123.61 57 123.91 80.72 123.91"/>
      <path class="h" d="M125.59,400.4c0,.11,0,.2,0,.31h13.06v-.31Z" transform="translate(-20.2 -271.83)"/>
      <polygon class="h" points="70.76 128.88 82.17 128.88 82.09 128.57 70.67 128.57 70.76 128.88"/>
      <path class="h" d="M89.67,400.71c0-.1,0-.21,0-.31H77.2v.31Z" transform="translate(-20.2 -271.83)"/>
      <polygon class="h" points="93.42 128.57 93.34 128.88 104.01 128.88 104.09 128.57 93.42 128.57"/>
      <polygon class="h" points="72.08 133.54 72.17 133.84 83.64 133.84 83.55 133.54 72.08 133.54"/>
      <path class="h" d="M125.36,405.37c0,.1,0,.21,0,.3h13.29v-.3Z" transform="translate(-20.2 -271.83)"/>
      <polygon class="h" points="91.99 133.54 91.91 133.84 102.61 133.84 102.7 133.54 91.99 133.54"/>
      <path class="h" d="M90,405.67a2.91,2.91,0,0,1,0-.3H77.2v.3Z" transform="translate(-20.2 -271.83)"/>
      <path class="h" d="M125.25,410.34v.3h13.39v-.3Z" transform="translate(-20.2 -271.83)"/>
      <polygon class="h" points="85.09 138.81 85 138.51 73.5 138.51 73.58 138.81 85.09 138.81"/>
      <path class="h" d="M90.1,410.64v-.3H77.2v.3Z" transform="translate(-20.2 -271.83)"/>
      <polygon class="h" points="90.56 138.51 90.47 138.81 101.22 138.81 101.31 138.51 90.56 138.51"/>
      <polygon class="h" points="86.55 143.78 86.46 143.48 74.91 143.48 74.99 143.78 86.55 143.78"/>
      <polygon class="h" points="89.13 143.48 89.04 143.78 99.83 143.78 99.91 143.48 89.13 143.48"/>
      <rect class="h" x="57" y="143.48" width="12.92" height="0.3"/>
      <rect class="h" x="105.04" y="143.48" width="13.39" height="0.3"/>
      <rect class="h" x="105.04" y="148.44" width="13.39" height="0.3"/>
      <polygon class="h" points="76.31 148.44 76.4 148.74 98.43 148.74 98.52 148.44 76.31 148.44"/>
      <rect class="h" x="57" y="148.44" width="12.92" height="0.3"/>
      <rect class="h" x="105.04" y="153.41" width="13.39" height="0.3"/>
      <rect class="h" x="57" y="153.41" width="12.92" height="0.3"/>
      <polygon class="h" points="97.04 153.71 97.12 153.41 77.72 153.41 77.81 153.71 97.04 153.71"/>
      <polygon class="h" points="95.73 158.38 79.14 158.38 79.22 158.68 95.64 158.68 95.73 158.38"/>
      <rect class="h" x="57" y="158.38" width="12.92" height="0.3"/>
      <rect class="h" x="105.04" y="158.38" width="13.39" height="0.3"/>
    </g>
  </g>
  <rect class="j" x="493.47" y="105.22" width="49.82" height="14.02"/>
  <g>
    <polygon class="k" points="550.97 37.4 11.45 40.42 8.43 37.4 8.43 28.33 550.97 28.33 550.97 37.4"/>
    <path class="k" d="M563.41,271.83h-7.74a16.57,16.57,0,0,0-16.52,16.53V323a16.57,16.57,0,0,0,9.58,15l5.08,14.68c.87,2.5,4.05,4.09,6.11,4.9,5.2,2-.89-.93,4.3,1.1.89.35.38-4.89.75-5.92L570.31,338a16.56,16.56,0,0,0,9.63-15V288.36A16.58,16.58,0,0,0,563.41,271.83Z" transform="translate(-20.2 -271.83)"/>
    <rect class="l" x="11.45" y="31.35" width="542.55" height="9.07"/>
    <path class="h" d="M559.71,395.25A5.78,5.78,0,0,0,563.5,394c3.14-2.57,2.76-8.11,2.08-18.16-.25-3.53-.53-14.29-.71-19l-4.52.18c.18,4.72.46,15.53.7,19.1.47,6.81.91,13.25-.43,14.35a15.77,15.77,0,0,1-2.69-.18" transform="translate(-20.2 -271.83)"/>
    <g>
      <path class="i" d="M561.22,396a13,13,0,0,1-3.33-.51l.23-4.41a7.24,7.24,0,0,0,4,.18c1.32-1.09.88-7.48.41-14.25-.24-3.55-.52-15.29-.7-20l4.53-.18c.18,4.65.46,16.35.7,19.86.68,10,1.06,15.49-2.07,18.06A5.78,5.78,0,0,1,561.22,396Z" transform="translate(-20.2 -271.83)"/>
      <path class="l" d="M568.09,273.86h-7.74a16.56,16.56,0,0,0-16.52,16.52V325a16.57,16.57,0,0,0,9.58,15l5.08,14.68a5.92,5.92,0,0,0,11.16.08L575,340a16.56,16.56,0,0,0,9.63-15V290.38A16.57,16.57,0,0,0,568.09,273.86Z" transform="translate(-20.2 -271.83)"/>
    </g>
  </g>
  <polygon class="h" points="538.88 119.25 496.11 119.9 497.07 118.13 535.83 117.26 538.88 119.25"/>
</svg>
